<mxfile host="app.diagrams.net" modified="2023-05-25T13:27:51.905Z" agent="Mozilla/5.0 (Windows NT 10.0; Win64; x64) AppleWebKit/537.36 (KHTML, like Gecko) Chrome/113.0.0.0 Safari/537.36" etag="NpdHeaH2sUewU5_C05Wz" version="21.3.1" type="device">
  <diagram name="Page-1" id="2ltxb96HXt-q9pwjfDDo">
    <mxGraphModel dx="1434" dy="806" grid="1" gridSize="10" guides="1" tooltips="1" connect="1" arrows="1" fold="1" page="1" pageScale="1" pageWidth="827" pageHeight="1169" math="0" shadow="0">
      <root>
        <mxCell id="0" />
        <mxCell id="1" parent="0" />
        <mxCell id="JM4tXp3sRUMn47UaMAML-3" style="edgeStyle=orthogonalEdgeStyle;rounded=0;orthogonalLoop=1;jettySize=auto;html=1;startArrow=classic;startFill=1;" parent="1" edge="1">
          <mxGeometry relative="1" as="geometry">
            <mxPoint x="750" y="260" as="targetPoint" />
            <mxPoint x="644.9999999999998" y="259.9999999999999" as="sourcePoint" />
          </mxGeometry>
        </mxCell>
        <mxCell id="wp3w9q3HZ1m84UFJys3L-7" value="" style="verticalLabelPosition=bottom;verticalAlign=top;html=1;shadow=0;dashed=0;strokeWidth=1;shape=mxgraph.android.phone2;strokeColor=#000000;" parent="1" vertex="1">
          <mxGeometry x="20" y="130" width="120" height="240" as="geometry" />
        </mxCell>
        <mxCell id="wp3w9q3HZ1m84UFJys3L-14" value="&lt;font style=&quot;font-size: 18px;&quot;&gt;LoRaWAN&lt;/font&gt;" style="text;html=1;strokeColor=none;fillColor=none;align=center;verticalAlign=middle;whiteSpace=wrap;rounded=0;" parent="1" vertex="1">
          <mxGeometry x="498" y="307.5" width="90" height="55" as="geometry" />
        </mxCell>
        <mxCell id="wp3w9q3HZ1m84UFJys3L-39" value="" style="edgeStyle=orthogonalEdgeStyle;rounded=0;orthogonalLoop=1;jettySize=auto;html=1;entryX=0.108;entryY=0.541;entryDx=0;entryDy=0;entryPerimeter=0;startArrow=classic;startFill=1;endArrow=none;" parent="1" source="wp3w9q3HZ1m84UFJys3L-7" target="wp3w9q3HZ1m84UFJys3L-21" edge="1">
          <mxGeometry relative="1" as="geometry">
            <mxPoint x="140" y="250" as="sourcePoint" />
            <mxPoint x="410" y="250" as="targetPoint" />
            <Array as="points">
              <mxPoint x="160" y="252" />
              <mxPoint x="160" y="252" />
            </Array>
          </mxGeometry>
        </mxCell>
        <mxCell id="aouGqNb5fBSgUR6Z8rVb-2" style="edgeStyle=orthogonalEdgeStyle;rounded=0;orthogonalLoop=1;jettySize=auto;html=1;" parent="1" source="wp3w9q3HZ1m84UFJys3L-21" target="aouGqNb5fBSgUR6Z8rVb-1" edge="1">
          <mxGeometry relative="1" as="geometry" />
        </mxCell>
        <mxCell id="wp3w9q3HZ1m84UFJys3L-21" value="" style="html=1;strokeWidth=1;shadow=0;dashed=0;shape=mxgraph.ios7.misc.bluetooth;fillColor=#007AFF;strokeColor=none;buttonText=;strokeColor2=#222222;fontColor=#222222;fontSize=8;verticalLabelPosition=bottom;verticalAlign=top;align=center;sketch=0;" parent="1" vertex="1">
          <mxGeometry x="185" y="225" width="50" height="50" as="geometry" />
        </mxCell>
        <mxCell id="wp3w9q3HZ1m84UFJys3L-41" value="&lt;font style=&quot;font-size: 18px;&quot;&gt;App&lt;/font&gt;" style="text;html=1;strokeColor=none;fillColor=none;align=center;verticalAlign=middle;whiteSpace=wrap;rounded=0;" parent="1" vertex="1">
          <mxGeometry x="35" y="370" width="90" height="55" as="geometry" />
        </mxCell>
        <mxCell id="wp3w9q3HZ1m84UFJys3L-42" value="&lt;font style=&quot;font-size: 18px;&quot;&gt;BLE&lt;/font&gt;" style="text;html=1;strokeColor=none;fillColor=none;align=center;verticalAlign=middle;whiteSpace=wrap;rounded=0;" parent="1" vertex="1">
          <mxGeometry x="170" y="280" width="80" height="55" as="geometry" />
        </mxCell>
        <mxCell id="sFVBywkQ78TI-9EZDWia-19" value="" style="outlineConnect=0;dashed=0;verticalLabelPosition=bottom;verticalAlign=top;align=center;html=1;shape=mxgraph.aws3.corporate_data_center;fillColor=#7D7C7C;gradientColor=none;" parent="1" vertex="1">
          <mxGeometry x="36" y="250" width="89" height="77.5" as="geometry" />
        </mxCell>
        <mxCell id="sFVBywkQ78TI-9EZDWia-36" value="" style="html=1;verticalLabelPosition=bottom;align=center;labelBackgroundColor=#ffffff;verticalAlign=top;strokeWidth=2;strokeColor=#000000;shadow=0;dashed=0;shape=mxgraph.ios7.icons.mail;" parent="1" vertex="1">
          <mxGeometry x="35" y="170" width="90" height="57" as="geometry" />
        </mxCell>
        <mxCell id="aouGqNb5fBSgUR6Z8rVb-7" style="edgeStyle=orthogonalEdgeStyle;rounded=0;orthogonalLoop=1;jettySize=auto;html=1;startArrow=classic;startFill=1;" parent="1" source="aouGqNb5fBSgUR6Z8rVb-1" edge="1">
          <mxGeometry relative="1" as="geometry">
            <mxPoint x="470" y="250" as="targetPoint" />
          </mxGeometry>
        </mxCell>
        <mxCell id="aouGqNb5fBSgUR6Z8rVb-1" value="" style="shape=image;verticalLabelPosition=bottom;labelBackgroundColor=default;verticalAlign=top;aspect=fixed;imageAspect=0;image=data:image/png,iVBORw0KGgoAAAANSUhEUgAAAPIAAADsCAYAAABOtPtPAAAAAXNSR0IArs4c6QAAAARnQU1BAACxjwv8YQUAAAAJcEhZcwAADsMAAA7DAcdvqGQAAC0KSURBVHhe7Z0JgBxFucerZ3b23s1uDo4kBAhJkGBMkEsJl3KDIiCXgAKKnAIB0SfvKXIoyhOQw/e4BB4P9CGXnAIS7iMRMJwCSYAAISHk2Pvene33/b+qmu7Za7pndneO/X67M11dXdd017+/qurqbiUIgiAIgiAIgiAIgiAIgiAIgiAIgiAIgiAIgiAIgiAIgiAIgiAIgiAIgiAIgiAIgiAIgiAIgiAIgiAIgiAIgiAIgiAIgiAIgiAIgiAIgiAIgiAIgpBXOGYpjDJnPN7qftgQVw2dSrV09aqmTle1dLuquctVEcdRVcWKPhFeVtJyYplSM2uL1OV7lcsxE/ohlWKE+dULbe7Tn/Sof6zuVq0kVICdrl2em7Rr1gD5sKdeAw4FcF0TiwO7akJZRO0+NabuPazKF1IYi0gFGAEOuqvJfX5lD1ta0F+02uXp0mzR/946L+FkX16FmPV27UaitAWpqY0rImqvaTF1x8Ei7LGGHPBh4rgHmt2/LutSbT1GjQB71+ixj5fRqF0DfrfF+GkFGy/tB/ECTgsOE9QuJ5VH1FHbFKur967QAYWCRg5yhky9tt5d1RzXKz4xWStpvSHAInJMr42qWbURNXN8VF2xVziR/ejvre7y+rhaWterPmlCnlrQyIeFTf9+i22Zu1GRWnLCuFB5CfmFHNw0QL/36lc71Pp2ajqTVhMGk5bYocapSkm58zeLqT3p8x/zy0ZkX5//TJv7zMpu9epnPUo35AlucptCJUTt8mDZez+sGZFyCNlFDmoILn6+zb3ylQ7V2JGQTGIPYgEBjyuJqCO/UKxuPLAyK/v28Pub3Uc+6FZdcZTGhykgdD2tOqo+PEUEXUjIwQzIrOvr3eV1ujmL3cYGDxvoKxpx1P5bxdTDR1Tn1P7c5Y4mF6Pl/haDKT5+gdptsyL19NG5VWYhPeQgpuCI+5rce97rShIBQ+4Sajp/94sl6qYsWd+gfOtestIfdlOR0ZfW2J9SRCehs7cvVZftKden8xk5eEMw7oo6t6mTmtHYS6j5BKxbadRRJ80rVdfsm18jwkfe3+L+dXkX9aX7C3r6uKhadrI0t/MVOXADcPpjre51S9r1CvaQT8SHbl2S9xMwdr690f3n53E9wg0P/DD6kcV0gmo7Z3xe/7axihy0Pmx/S4O7ZE2PWdN1HP3LrWqj6v3Tagtqf028tt5t6KQf12eU+9CZMXX3t2RSST4hB8tHDTWlGzEbCxbY7BnHddRPvlKmLvt6YfYhj8BEFmpuW+x16a3HF6l/fV+uPecLcqAMpZdtcDt7YZ2wppWM2VFrF4xcU/O0x1vcpRvial2b4psl8GmiE0mEcqwujqjKYlqWRNTUqoiaNT6qfj+CN0yU/77O7eJ5LbwDmMmVEfXJqYXVCilU5CAR0d9ucHshYmD2yG6bxdRzxw2fRTpnYZv7zCdd6s11GGryDzbBbWeB6ctaxjkg2F5EXztPLuKJJhftNnwTTWbd1OB+2Ihr5FQmLgi1UuhEsu5HMgiW64z5A+Rcul4rGHuCXKi/p3+5TP1hv8xHpE9/rMW9670uVU/9UH2DAyWJASZaauEiW7jtJiOgPn1WDYdil92kV5TaclxUHbtNMYk6c4u9793N7lMfe01tUBaLqOazxTLnMmP64Di/WU89YC0RqxMSg7pg18wEsd2tje4bn/ckxGmVl7hrif4gYP/eH2iO9EAkRJwcnf2wbZ8titWjR2Q2UHX0gy3uvb5+MygrUqrpbBnRzlXG7IGJ/oaa01z7aYUWEeqYxn82IaP9MZuapu9h9hcrjbCqo4W1vMhs8+oitd3GUTWzNqIu+1owy79gYau7tL6X51TXd6J5rjHF5yXnByhPdA0ymbV1xhOt7o1vdlLa3klnPDWzPz9Dmtm5yJg8KOW/2+C2+243xBTLngxEvMvtTe7iVT4LxoIyAiBKyJodtFWxuvuQ4b2ks89fmvihBfaHJMSts2fHkVsXqz9/M72ZZ+c/1+5e/ko7JeWJebPKiPpQJo7kHGPugNReWec24KYHXS+5vrvnT0xrP8BK/uGfHQrjZNr4Jhy8ff7UYvX8caMzl3nbWxrdpRtI1PZHAeOuIktaf1Z6fdyTH291b/1Xp0lT/745E4rUkuNljnYuMaYOxg63Nrj/tJM9UDHp1/9y13J1YRqDRF/6Y4P79npv4gjgQSwS8QFblahHMuynpssOtzW6r69DuZC9p2icX/bfMqYeSmNW2mEPtLgPfZDcZz5xdom6cf/8mqJayIyZA3HW31vda19tT9RvVOxT5pWq6w4I3+ysumKD22o1TMK1At6FLPALo2SBUzHzpkZ3RWMPJEw/1wra3MKYRtN4jzub3JdWJ340p9t1rgx+5Qpj5kBghJqX9IFj16kx9fx3w10n/vmzbe5vFlOf0deEhojHl0XUujSbriPJBc9TH5dOXpjooYuryxuLKtWWxkSXaTc0uGtavYG2ipijGs6Uy1K5wJg4COOpX1xv+sWohRPKI2p9yIp88qMt7h/foL6iqcZshWm5zxYx9fhRud1fnHNro/su9Z9tywH7IUJ/XT8OL8KS39e53piAUtttVKRezpFWyFgmYpYFyzH3N7u4XIOKx5AjrIiP/Guze/ObRsQUH4JAAhdT/zrXRQzeOnGcc+w2pVR6bZHx10t/sSvqcC4KxX/sXMb70jZKXlubPE4gZIecr4SZgplbXPHM+rk7lqkrQjxZki0xRIyaS0AIpdQ0bT0vs2vOfcGztxq7XNVKH/RAK4qVGlfsqN8O8w3/sSvq6ZfQic0ceuTW8+Nwv2Wvu5rd51Z1cwrYLdUljtpwhjSxs0lB7/zZNza471GT0op4i3FFasXpwQd6Lniuzf3VonZzFtDWrLaUmuUZTlf8GYn26ZXdasmauMKkFHuiQaJ2mcB6kmPOpCK1x2ZRdVXIp2/2pZS6GvzQIuRNf5gM03lOuN9UeU2929mjy46yHTkrpu44KLeflFLIFPSO11Mw9agtfmhvyOvFkd/Cmtt+paPGl1KzPINpivOor/rWum5ymSRoAZdJ3lvqrTqUyR/+DDaSe6uaqFp6UvoTM0qurHcTw1aUfmlRuPnUv3ih3b3sFf3wBS4SFbBrgVjlbFGwfeSJv68z86h1ZT1wBrVVQ1BFVsuKCJQXpS/iubc0utHfbTDXnenUYlKxzVsstBj0l17QNxwQMS30ivGjrw8a4tzHnXFjo1FjODrP9YmO8uqIu2o2ldP4pOSSXcsctHAAJ0Tl3OMvTWmVRcgc72AWGP7LTcVkbTp+ElyEc29uIMtpBnGokkfp0/3T8CLe685G95lP7M0TxhOpkJv9yDmpLMLWdVNqlW5aEVHX7qObzZg1trrVVWvaetVHjb1qdQvfLEzoBBItBfiQm0ePvxtu4O2SRe3uxS+16cIQ+D5yVrG64xvBm8gxnDB1kTgdscrZoSB3+uRr6lwIQP88V508t1RdH3Dix9lPtLrXLulI2jEX7lqmfjE/3KBT6eV1bg8JzQoYlR1uLPGQgIO3Kg49kHXRi+3uwx90q9fW+prnflHTsufH4U44mLX18AddrEOAyGEmeuz8pyb3tXXejSJ7bR5Tj8pL5Uadgtzh1hoDWNMwN0TE/rPOjfeaa87EXpsXqydC3EX046fa3Kswg8yHFfE3qHn/wDBV8uMfaXH//C4JkFND85vEbJZHbR3Oqm51U6O7sjnOYkZZN6JWwqenBu9/F5NV5v1FCeCk0ilWedQpuD7y9P+u56ae/jjq2G1LzJbUzL+jyY27uOYMOThqYlk0lIi/cU+zFjFimDJgucMmRSr+0wnOcIkY3HZQpdN93ngHb19kEdOZAkvwl6Vd6qtkKXklAB/8EDPcKDZ944Sztr1XLaATktmckm0mUF+ZzwJYuOroh6lPIIwqw1axcoXIbzdwexY1CS8MD3OPcfQyikvo2Er1/lvwUW6cBP7xGZq8WgygKErWKWRTN11qrql3W3FrJjAFwLue3gn4AL1TqUtxy9uY9KI1GaGqEeaSVPFV6CtTcIqMKaAtMnVzVCkoi/z9h1vIMFFNgkWlavT1LWJmS2q+cBMmSug/WLavTg4+yv39v7W4i1d3s35M9qqWmqejJWLQcFatg3uF7e/HOXp5Q1wdcG8zeaTm+n0qnAmliK/P7tgPxz4S3LJOpN+LvPHXjeEJYVQpKCHfu6xL12GqTCBMs3h5nZ7thD9UxhdDjADfRpZM56s1hMGs9VmwSLiraefJdPLyyW/hR13q3KeDNZM/O62Gjaql7+N+huKIWfrEhwQg6N3lUtSoUlBCxuNkYVFAeXHwn7bdrQ02Gov4wOnB+9Wx3+n5ymzJSAS4hPTOD7L3BI0Xv1PtbDsxmjixwHHtax1mJTV4BC5D8TDrDA8W0B5Dc/XXyknDpq9Oy3+ssZfLhNGgYIR8KDchdSUCh4WYAPImLp8YM4b4Dwd8KMC06+r5uV8mS1VCfeKVp2e/b/j68eMcTCXl/aG9VM219YEE+VGf9yffuUz3+4MwqxYnEC1mYXQpGCE/y8+uAqhEjvrfg4NdfjnlMbI4FIUrIP3NnxK8X72q2burCsvWHLrR/vPTa5wih/qtZr2tx1VnLAzWxK7BScA0MTp6gnd4j5iJfeedTA+4ryVQfkLmFIyQGzq9phxeRhaUe5bqkVpb4587NljfeMI1ZOEoJOo7oh4f4jLXaPHTnUp5CV2hnPzsrQB8e6ZtzVAkirv33cEEecFX8bB8u/tctegzucVxtCgYIWvTqCvRTptGeRmEhg5dWfHBg9iD8JOn2/gBfpwb4hU56uYcfEfyRfPLnI3KtVXG7unpddUxD6cW5XV7l2PMj/7pi0LjlsWgVMZ0ywax2+MpsxKGiYIQ8oF3NZlRLt2s23NasObxGX9vpVimstHiG9ODxfuvJR0sYMsZ22nLl4usOrWGT3G8d+jrnuXBRLlldZTiUAQWdHB2mVxkmtZ6v160qF07hBGlIIS8aJVpVlMFwkDLxbsHm8P87CfdptIRtPhLwOdO42Vv+jKVUrUlkZx/2z9eYo4CWoGd90zqvvI+m+uTmr0c932MJQTgoUOoZYKQyIuWi2T0elQoCCE3Uv+YKymJOOIE/0nv4q0QIdnxtkY9vZlqKZbHbhvu9shs8F5idpduf9y1NPX14T/YNz+amM+tCtPfpVxYzEotS2MfC+EpCCEDvuRBYt58XHo/CS9CC8IS84wq1FPkd3WGT+sYVai8KOya9mAj0Q5GvbFfiZUtIaZrIR+zV1a1yjSv0aAghMzW2FTSmePD/iRdUXFjQxCQBxsbyq+m2NTWPGCb8XSi4pMdreifnJItqyFI/QlDLe0XzsKcBISRJ++FvOAJ23dDs9FVM2uCWdYTHrGjt9p6zApwAjgNs5zMCQP57R9wcCwI86jJjid+xK70PrhX2GzOmIOmmymUKD39fytA2jNr7b4MV4yZdNLAPuKTgPYSRpi8F/L7jfbF4brKXLtvsKbusnqvyQfDcXGA18a8V0/9PdOER90Oc8/vUFReVe/+awP6kkYwxpI99H6n2uyGBuOZGZfihegoNqUNx9IAfdeZNbh0hez1gNeCgHO2Z9HJFAHt5+LFuMYnjCR5L+T6djuC7Ik5CJ82YYBMaxKfICyHkCmw7o8bzwz54v80uhgFT5wggFnCouHNDkc9NHyWGWmi/B81pe67XrlnOYU2ZaHPpwGLMZnOpQiPn4ElnisujCx5L+QWfg60ETFqTUCau7R2UDWxDMIatOIpcNg+41CwZUT+RjLbb1zEl4vgqYvlqvsCXvsNAu8ryovfDR0AWwqUr6U7WJxL5pc5HJK+sGwJNqFMyIC8F3JTl36iB7AjrEHwbsLXliMwFFYHDxNpCFBmkxReP/PEEVVq0bHVauMKfQeT/m3Bf9dQlETN4U6km5pE/vTfHFDIgFPnfCie3dfCiFEAFtk4uNJw9QlEnC0rOYJH0aKjCLoFkDlnPkl9TlNmfH9poh45x0zRbSfogSbW+XBkRmxUjnxM1yAovgK00kkzKDYHRA9qyYX0yXshw0qEqpgWioJYqKKBY/sElWhyDgdUflsWC7STzs8aCj7pUbr8mwMnrkuF8vSYqTBBsCdVLFpFyCNO3gsZ9ZErTchajzioaogVxpJb0okzGE5EpzXQLxjGbBKDTmF+sw0G4VeGum6OEyyWaAGwhzCC5L2Qq0pM5QpZ48tjtkLTV8CahrucEhVbLzLGZt+3+LZsIyGCMLvKWm4IH3c2hUHn46qKPJo4k6/kvZArkyZkBa/1lcV4TmQ4ocyoKfIqNn9njs1+sHKEEV0qIEZb/nFBH4VEcXg/0acqzfkvVSLkEacALLL+CVzhQ9T6TTD/w1TSoKqcgaf4IA59IIgLXsjsFj1bXCztx6KdGFgbXnST2tG/JQW/eBG/z/TfKfjG5eGqi22+V4R40IOQHvlvkc3NR2xoQtR6Pf0wnEzu/lYVV02IGJX00Q+H8fouJOMrjnYaj2HQwWEPtVDyNgNXfXlS6rnlyxvRpzYWmaJejwcOBOCXi/RMLptfuL61kA55L+TxpdREtvUkRH2BkFk4HMdRPwx4vy1j8nmNX5GaPn7h4jckfgdhnfrMod2Z8BTuvU6k6rtNcQjeb4j7YgRnNe6UQsGp3Djhjc/d5y4UDHkv5Bm1uNXOq/DnPBlMkL/avcy0/HTEN9amnnsMqsm6WEH4hZEOyJ/ruynxwAXPLA9Le+J24uD3bC+tgyARI3G5OxDvN2K2Gg6KXv/lV/AsL2EkyXshX723nthrrevyhuCTFvxCfM3cZ5yKw82D2LnZSNF3vzPzB7FbkXilAbQGD7/ZTpPj/mYmSXMGjvr6tGC3bHZT3jp7J/jgGIEbWXCWxJ/XnBdGkrwXMkD9ZOtGy+UhnkixMd8ohYoWvMLdsF+Foy0UxaUoL4V4MN1ADJ4rbdFF03llwD3vm5OUsZKP4HE8KbjgpXYe4Ob9Sl/zpwS7PRSsa9N3pPF+Mn7CyFIQQgao8/jgpeBB2X2qeS6VqW1nLQzWLN9pU3MdBpWc/na4PX2rzFkPKFRK2fgHPckMBO471orEmqM2rwomyKc/1S9o17jqvjC3bFJIbY8dNaks+AlASJ+CEHJ5DFVGE9weK/Xnb+rKaUeh8e6oILx0TLW+LmQE8sa6YM3yviTkmRCaH23RgPfrwvPYR/SbEN3ksezEYM/tfuXzHo6SLrr0rppVWzC2IqcpiL28y5QYV3muoVT7LqFmIZxBiEUx6q2vC68NcVl4b7zpkeJZVWxxY7BXsvjhuDB7cAwQOxMBgx3wjmTPrKrZeNxPCGyLIOhTV8BhD7e4KDf/Ufz5IZ4xLqRPQQj5sSP09V0tCkc9uzJ4v3U/EqS1yOC7AV/S/ei38ehcb8LGqhY3zYEvioJYOvskrEW2yzAc9UiL+xaeOmLMKn7fa8cFs8ZzqKvgz/mtEG+mxONvtS2mmPR/Eb99QhhpCqvdQ9UPolz8WfAG9v2HVlId14Nd+Lt7efC74E80j8I15wC1aHWPOiXg2wsTILRNoA8olz3BhOGSxR3u/R/gurFOA+wV8KH9AO9V5lhp5F+PN3AgHrljMqNr1CgYIWPuNGoP6l2YF48BvFaFm4L0F6eoZ+M+4QDcuF+FY5++iXzxufWdkI/DMHVdV/3++FsLQfnVPzr4BIEfgZPT9OpooJFqsPvdvhejU957Tgl2qcrCZTX2fMeNpVk9WhSMkHedigrn1dUwM7VWnWZeJYo6SH9BX3YGFh1T7WAOss0MdXij/w77wDzdGvCjxRsyGWL7O9Av9rrGlbGIeveE4E3jl9fogTt78niMWizsCMCOdzbTeYfKjLj0CXsSENKnYIT8MPdZqQIbMd8X4m37gO/Q4TroqPbu3sAv+AYrT6lxis09xYhfFHKvWtH0RWsC24ILuu+bKDfYk1QAdv4/ssamLMhx+43CCfFt6pNzeY1F/sXOpYHzFjKjYIQMyovsxA5HNYZ8cuNp8zAhmOJydIescrgTQevZtc6mFRE1hQzY6lODi4dPPJRnfzHrJrX9PUFZ9J0qB6PMmIPeeVa4l66/sZ6sMZ89sOaqF48K9i4s8DPcKcUC5h+jtgtwU4YwfBSUkA+ekTz4dMj9wR8j++vdypzJlbQ7ElXXVTuhmRqCj0+ucVb0eeN/KnSjGhpIzsquhUrM8Pb3qp3VJ9v3PQVjkxsbdZYUCyeXPUO88B3gLY+JBIiXjgwxgUTImIISsn1gvB0gCnub4cenWAumq+Tr63rU+c8FG/hKC5MbysoW2Vf1bRdh5DL3OPCBFrexi3IyZ0C0zsP0jQHe8WRbFaaXIYwiBSVkMKUKj5HVEzzw7OZT/x7uctAeU2OJCgkjefmro/NQZrbISSXVK1ySERbGUyvJmnL+eozhR3NLzJZg7HIXRrpRXvpQWfczr2QVRo+CE/LHp+imrRajq25/J1xfd+GRVU41HgNkxOM4rppy/fC8tqUfSDWRDzmMm/EKoMONEBV/aOCZWJw3fbadEFG/3TXcJI7X1uO6vUmAynrfQXn0hsoCoeCEDGpLvUGirl5X/STAi739rD+jxoGBsqxt6+VXu5jV4YOqO0Sky9oHUwCtiOHPGky6ocHFkCB3ReivnNrUr34n+KUqsM9fW9DBN+cdV31lUxnkygYFKeTT55VyxQSopDe92cHuMJz8JUqDkmA90XJZfVztgsszI4Aua5+kjYXmJq/5LcPJ5jc3ui08hEDpIx/6qwtxqcrywmpcd0ZXBmuOevowGeTKBgUp5AvnlzkVMW3pIJJWqmvHhHwR2n/tXe7suRn6y6ieum6+sqZbLXhqeAe/PGvMGXnAG+qgAmhrN3zscXezixtE+A9Z0N+Zc8M/j2fun3TfmMtHn7kTZSZXtihIIYMF28OiGnFQdbs75AQR8PfDq5x5fD0UqtJJvRrwkUBBQZr6izXhgaIbBfu9h4Ml6/RvsHkfObNY/Q6vXQ3JsgbfvqAzwuIQ152F4aVghQyrvGU1/TyoANWLKtqX0ujnvnxctTOjtighpheOHu7KSslxGfsna/McbnUcPqOY0tZtgX2nxdRt+wV7OqafiTdgX9I/lRvpHLSleZypkBUKVshg2UnU57NVlCrcu3VxdXGIe5Ut75xQ7XSfM97poo/xGh4oNdYvPrqNm8TwZuZx677lTsePavnz4MHh+7SHPdLitsbRpNa7tyzqqHsOlJHqbFLQQgYHbqmvaVqD92vcGZQraJumv4wo/OgzjracucRjH+sbK2y56k4JN4tMGH4KXsgPHFqlB76o1kHMmCSyhZ2OmAtQeexJpm+h4G/7yblC9XV63+lSuWpGiKeHCCNHwQsZNJypp15aMa9qiauD/zoyl5LCwBqlLxRkMLnaMucCs29vcnuoQHbHlUYj6s1jZIArFxgTQgbfm12SEASWj67oVj/P8N1NmeJlrsWRpAhbVr3IOoc+3OquaNZ3lKFMKHG9NKlzhjEj5Jv3r3C25vc9aQGhyfqfr7TzerawKhis+QxrnAtKPmlhm/vYx97lOxTrkK1klDqXGDNCBm+dMM4pL9KvU9XVUamSq8I//XK4SOiUHNBy34IMou9R5fwX290/L+vyTja0wKOD/m8/GaXOJcaUkEHDmTVOEe6zMxUTUyArr8mOmFECZMyZD1mC7Gnmqjf03V8oHkoxsdRR/zpO+sW5xpgTMmg7u9aMMOn6iBsr5v1v+m+LyBQuBn36qSNhkrNTtJrrzaQPAkWpKHLUJydKvzgXGZNCBl3nYCTbE0hDyEcDDTsJyfjgTjKRJengBGczLyIlrwv51BFh9BizQgb/vlMZWRqHL6N8FPIRPcMBy4RzpS/978OsJazy6LNgrh7phyVuOlVEnMuMaSFfuEuZ07mg1mmifrPxGlW8TPvZYkL7cZiBNo8Cl84vc9pOq3HEEuc+Y1rI2WdwffCETfrn+5FFRkIKRMhZpc88al8zmrdgI+tZlCwMjQg5y7BErYDt4BYB8aL/jr8+cheEfoiQc4EBms8Qr/0TiyykQoScTWBxYY3xMc1oC5zaIgtCakTI2YQsMf48i+zJlhvTvD2xJgiDIkLOIh/jbiJoGBaZqPLdh1BdQn7GYkPGl/yjQ9QsDIoIOYu8vYGEbIwwGtFfnODdpL/teHOnFllliBlvOhSEwRAhZ5FPW7Q4dQPbVdv6hDzHPFrWGGv1FkQvCIMgQs4idigLFneT8gjfWWSBRfY/nH5Fk1hkYXBEyFkEVpj7x6TXOROTX7WyaYWjJpbBKkvXWEiNCDlLnPhEmwtbC6vLzerx/Q8FXqjGsFEWQQuDI0LOEm+t7+EOMDQKq2z7xH7m2D4zaRhhTn5yBN/VLOQ1IuQssbReD15ZZfoHuiyJUWy0vingWzJyLQyCCDlL9JAw9aUlpcqLHDV93ABN6/H6pe2W94z4BaEvIuSsYQa6yNzOpv6xJ1ePmbURVYznixnBd8SlZS0MjAg5C/z0xeTnaX9xwsAvB4+SeLcmMbOKiYHELghAhJwF4tzVhSyhZ1eNw3TMQaihbXar2GNhMETIWSWYpbUCThVOGLuIkLOGtsaQ51CWlkOQgocKIwgi5Kyh72yCSIeytEnbxCQLgyBCzgZGkLg2DEubyiLjy4x3CcKAiJCzhBYmlOwObZFFwEIARMjZAPqlBV9HTqFUWO2E0uEWhAEQIWcDCJMUajWqXQPj6ZwcCbcgJCNCzgakWx7o0k5tmQfFbhNzLAyOCDkbGG1qERvHoIiAhdSIkLMFCZg1HECnCYttFoLQFxFyNiBB2kEs1mYKgdoH8IlxFgZDhJwNSJAptJsEaziI6RbGLCLkbMHi1MuhgCVmCVO4oQfFhLGMCDkbGD0G1qWx4ENdphLGNiLkLOLdoDg43KTmYAgdVPnCWEOEnEWCWFhYbXvFWSyyMBgi5JzHvh9Z7LEwOCLkLBBGkhCxHvDSYhaEgRAhZwHbRIZAU41E2628FB0LgyBCzgJWj/ra8ND9Xt7KA16INXRYYewiQs4KniVONc8juRkuJlkYGBFyFtBNa933TdGyJnzWOJXqhTGLCDlLQJO2rxwEtsypVS+MUUTIWYKtMf2xlIfUp95orbggDIQIOQtY3UKcqUatrXh1XzlVWGGsIkLOFqRJyJJHrlMYWmhdi954CEIfRMjZgJVJ6uXmNdbZd1B0UGqGpxC8MHYRIWcBfSNEcPNqdQ+7LAgDIULOAgkJs6B96wNhBY9wIcQvjC1EyNkgIU4szcj1EMCCi4SFoRAhZ42A4oTKxRILKRAhZwWI2FriFIKmjXa79JCFwRAhZ4XUzemBELssDIYIOWtAytxuTi1qUrBYY2Eo5CQ/TBz9eKtb3wEXSc7Xp/UEqEWLLR82xdXqVm+Cx5SKiJpWiW19Dget/qsurhq7Ka6OrmbVRNWkEnIkgsLh5cJwwiZCvyUwbrsKfJfE/KG9pe4OAL/bkuTnW3D8hMPnRx/7DXR8iz9UnyU7ye3bxxov1YGi+Tcn/VZaYFPf6LBwW1RG1LW7YGfnPnlRyFxm0h+b3LaeXnLRrrR7ExUF+GowVxhTY/yTO2xFslEt1i+xzQYYKLDBXp7S9zljHW691JG0f2KD301LDkZAVBobR5cf8Ai6XemLl4DGi44UEulab+DLHmvs52310PvMxIebXfrkkTiJmOg6mN3PQ5TXD0dHuP6/ftOyiHr38IoAiWSPnC5crlN+fQMfc64oppIxpuLYnaurhhaDV2nh1iteOP2t0yOnfwO5saqd2qXDIwmvkgNdcQdLwFRw9tZx9LovPv1xDBM9pRg4Xe1kTFB/OdkL+fjSsmX2ygs/37rNU3smUrN7zJbZlpfjEEOWlcBmDqmDD7jud6CclUWO+vQ71GzKUaSPnCaz/9TsosIkjiwOuv1wjdDVjCuer0LAaeov++stBKLyAgG0FwO3CWS9kSZ7m3Thw2khDfayVdy64ElLI4gkAWGdQyAMvpNFMZDwEmhvhoPYT4Kk3E1aNh2vzBrt0Hn58kFYHUnHpz/76zh+Ih5SQHoISx6+JPrC2ROclY6uF0jDH93mSZ6tPa466bmOIVLNLuZnCGGBNdYH31FRWpyzXYn6AvVfuXIMA0jGX2vsej9/8kDFtPn63aOOv5CBf4EfL4wXKnl9YH8tcPxb4WVKnJJ/5rMeddeKbp0pfVXHlPr4qNy0yjlZqHyg4oZGXZ+oEk2tiKpXj6zUq0LBUNep1LwHWslFh1qfN1T9cVU5qRlpWmcCzB8dXaNooRDhY0xkrZkTDBFymvBh5YOLAy1SLlj0gaaPPmnnKiLkNNH9MoDv9A/ws6vj6ucvd6rvPdmujl3Yrs5f3KEeX9nDfTQhu3iHwPa7c/eg5O4pJsfx95GnUB/5nyH7yO/U9aoFL7Wrt9bHk44CO6nSzKiOqMt3KVU7bYShNCEb6D5yC7k8EUsfucDQXSYcXFzygDs4i9bE1TcfbWURV5V9rnaecYs6eMcfq0N2OlvtPPNGVVPxkXq/qVcd/nib+tsnPSaWkA30uLhmOEbDR4rcLVmOwxaZ9h524ORyhyxyld6Qgs/bXPW1B1tUfaerZk99SO0999eqpKjZbNX0xEvVM++cq15fcawqi0bUoweVq1k1cs4dbWCRt3uwNXFJC92p+mPFIhcYto9MhDhTX/FGJ4t4swmvqoO2/1k/EYOiaIfae86laubkhQrTPy99jWqUkBX05BWN3zrnGiLkNNFnaH2ggx7erl6l7vuwm937zbuAl0Oxz5wLVayoQz3xaVxtyN1JRSPK89QNOeG5DnXSCx3q9TrMae/P/R/3qGOe6VBnLu5UK5oH3k+3LOtWRz3doc7/Z6daH2Zf0nG2TWq/qHMNEXIG8OENYY3fqouThVXUB16pais/Nr6DU15SrzYat5QqUK96dV3c+I4dljb0qu8926GeXN2jHv+0Rx39VLta054spqc+i6uzFneQ4HtI0N3qO8+0q44+u+q297vVha93qUVre9SfPuhRP6CTQlBwdP1TQnMVEXKa4NB6l6CCsZb6x/ibNG658UnNpKqlfLJYOwYt8rOfx1WPzwpivvMi8vPz5KoePhZWY6tpH79DJwA/T6zq1daUVemq18iybwjYW9HH2JvfnauIkNMEdYL7TNoRiOpi3UxrbptkfFLT0rExL6uKAmZSQEyr6F89N69K9ptG69gzLGb6ROlrSnnyvtqc7/U20P4fV6xULX2C4IuZ04iQMwU1KODJeta4CAyCWt+8tYr3BqtJaxq3ZSuy9Rgctd5/alQdNb2I3RES4BnbFKsvT0jeD8fPiKk9NiliucWiEXXR9iVq47Jk8Z2zbUzNmaDTqaLFlTuVUnq8mhJriXO5WQ3y43STg1Te1JhorU2pjKhXDw82IeSQR9vUy9Tf/crMG9Su21xtfAdmyYrj1FNv/7uaTlbnhUMqjO/Yo6FLW9qqmPEYAAxgVcYcVTrE/Bn0ryeUOCoW8JxYR/ni8hOffY2Q647JzbufxCKni3dsQ3HevBLur738/g/UirW7Gd/+rK6bq55/91yuROfNLTG+Y5MaarwMJWIwsXRoEYNNyFIHFTFDx1ifrelA04IFnaOIkDMBxxViDnF8d900qs74YomKu1F17+Lr1cI3f6HWN82kOqIPRV3LFuq5985Vd770J9UdL1VHzChWh2ypm4XC6JPoI2ORw83r3C1ZjoOmtXHy/civHB6u6Xv5613q92920TmglytILNJOi14SbwVbAfTJjp8VU5dQfw7NSmH04ZldD+F+ZMJYZmlaFyg4qulcmjhvXrFa+M1y9e2tiqnp6Kju3jLV1VOuysn4fmOLYvXAARXq0p1FxFlFH1xNDltjINUkTapuaqJztD7KeJxt0MGuwcCATi+lOD4/nr46JrCDXX49i0UuMOxEATAcRxYDOiLiXESfrnPcIIuQMyN8k1rIN/TpOocHrBkRcppgMMoe26ZupVa2iKgLDUz1hCW2R7a8KHflIm25NJlyW5PbhFe50C7Uo8wRVRrRo8262W3AOm9HjTBVAm4DXBzeF46vXdIWGywRH25O24tvEuCwiMZLvYVJpGvWOWVf9EQC/ZaapHKxT//8/eXmctqCJLDpGozT+uitSF+XMyl0Il2znryR/fvmjyXC2HL691nS/jOLRJq+cuNRS129Ol/rvdOkqHp07z7TxnKEnCxUPnD28+3uLUtxSyJqgVcX9JG3KwRqASB/eNmKxEsT1oRg4OXHn5RJILHkSpsUG5sSG2nhbeW8QKKyYovx86Wh09Rb2JfD41+H7Vd+7amxyQ1A3+z1Ep6+MvJXYiOt0DKxkbcS8NDbbFk5PKB1G8piU08qq0kaXiZmAvYz24AvabVB3jRReFy9W5nz1U2i5kDbCqRrAVcebDA1wlYithQUhkWAJYLATZvtR0dDOL3kmDo6AntLDssJJDZjaXLnbSaYyZ/WEZ4D2y0cEgH0Oi11miYVDo+SciT243JjyYVFEITR0T3IzwcH9ZLzlvzni242cmyOoDfY8ic8aAk/W1a4+cNb6A/+xs2l53ThQV8cSC85lAkLOJhZxZKDkR/if3d6iqllWQY/S8iQHe5pdZc3xvnyUWKXJu1Zzx/fvlDk9iolV8WkeD5MRFsn/SCeqf5edARkyJ8zNAnYhBIhfaIAJp7dCvyhB4hu3Emh2GmD4suW25bVhmQ/kz/72Q2eg7Bp+/YVlrzJV34KwvvQoqNorNu32cJlM+HYjSV9iiOO2m5CRP0tR5vTfnK+gPlM1R/tc7105dW721Y8hNBuu4nrIi1Pm12sLvtKKQILITnkyXb32TU9iX3OwsaetDuX4FV2eWBTLjedUyFN6xGERcrVRsNr5Getj94OB+oZRK1XRcTps1lZRO9X/JulxtulidYLh9GfGL7yGBHyCFLODwMwtpgqCpa2Wcj1ymcWkiudkC78YnK9o7WHWSbrVK/4g8wZn99SECGPIAdNww3vRrH0ryuTV6MgcVOXNLSCB9MLmRHDBHWrXLPEfrZ7ns+ZZgUihvuJfXO/HzwUUmtGkJu/Vubg/tdka6wrFYB/ovaww1FLDs/fflqu8P0ZA9/2yWLG/jcHAG585o3P/7d5iJBHmA0nVqO6mEpDXwS++9hirmWnzM7tSxz5wm92KHF2nJgsTrPrNeSGmHEEqmKOenK//LbGIO9/QL4w9XbMBDMrfSijvvTn38vNNxjkMyc+3+E++GlPwgIDCNo2p2GJC0HEQCrPKLP7g63uiqZefr71llURtcfkqLriqzJKPZKc+lKnu2hdnJ/Zhed6za5x1EN7FYaABUEQBEEQBEEQBEEQBEEQBEEQBEEQBEEQBEEQBEEQBEEQBEEQBEEQBEEQBEEQBEEQBEEQBEEQBEEQBEEQBEEQBGHUUOr/AQppETg63eN7AAAAAElFTkSuQmCC;" parent="1" vertex="1">
          <mxGeometry x="279.11" y="186.5" width="131.77" height="128.5" as="geometry" />
        </mxCell>
        <mxCell id="aouGqNb5fBSgUR6Z8rVb-8" value="&lt;font style=&quot;font-size: 18px;&quot;&gt;TTGO&lt;br&gt;T-Beam (Node)&lt;/font&gt;" style="text;html=1;strokeColor=none;fillColor=none;align=center;verticalAlign=middle;whiteSpace=wrap;rounded=0;" parent="1" vertex="1">
          <mxGeometry x="300" y="315" width="90" height="55" as="geometry" />
        </mxCell>
        <mxCell id="aouGqNb5fBSgUR6Z8rVb-9" value="" style="shape=flexArrow;endArrow=classic;startArrow=classic;html=1;rounded=0;" parent="1" edge="1">
          <mxGeometry width="100" height="100" relative="1" as="geometry">
            <mxPoint x="270" y="340" as="sourcePoint" />
            <mxPoint x="150" y="340" as="targetPoint" />
          </mxGeometry>
        </mxCell>
        <mxCell id="aouGqNb5fBSgUR6Z8rVb-10" value="&lt;font style=&quot;font-size: 18px;&quot;&gt;&amp;lt;25m&lt;br&gt;(max = 100m)&lt;br&gt;&lt;/font&gt;" style="text;html=1;strokeColor=none;fillColor=none;align=center;verticalAlign=middle;whiteSpace=wrap;rounded=0;" parent="1" vertex="1">
          <mxGeometry x="150" y="340" width="130" height="55" as="geometry" />
        </mxCell>
        <mxCell id="cYsxfp-1DfMrDu58daRg-3" value="TCP/IP" style="text;html=1;strokeColor=none;fillColor=none;align=center;verticalAlign=middle;whiteSpace=wrap;rounded=0;" parent="1" vertex="1">
          <mxGeometry x="670" y="260" width="60" height="30" as="geometry" />
        </mxCell>
        <mxCell id="aH0ajwhX6fXI9PadNEJU-1" value="" style="shape=image;verticalLabelPosition=bottom;labelBackgroundColor=default;verticalAlign=top;aspect=fixed;imageAspect=0;image=data:image/png,iVBORw0KGgoAAAANSUhEUgAAA2AAAANkCAYAAADRA0myAAAAAXNSR0IArs4c6QAAAARnQU1BAACxjwv8YQUAAAAJcEhZcwAADsMAAA7DAcdvqGQAAIO3SURBVHhe7d0HmGttXS7us49iBQHBDlIEaYpYUKRIsSCIAqIiKKDoQT0esRw9ghWwYflbEbsoighWRAQp0lWQ3qRIRyyAiDSx7f/zTBKcL2RmT0neZJL7vq7ftZJ8305WVjLJevK2c+fPn/8fAAAArN7/nG4BAABYMQEMAABgEAEMAABgEAEMAABgEAEMAABgEAEMAABgEAEMAABgEAEMAABgEAEMAABgEAEMAABgEAEMAABgEAEMAABgEAEMAABgEAEMAABgEAEMAABgEAEMAABgEAEMAABgEAEMAABgEAEMAABgEAEMAABgEAEMAABgEAEMAABgEAEMAABgEAEMAABgEAEMAABgEAEMAABgEAEMAABgEAEMAABgEAEMAABgEAEMAABgEAEMAABgEAEMAABgEAEMAABgEAEMAABgEAEMAABgEAEMAABgEAEMAABgEAEMAABgEAEMAABgEAEMAABgEAEMAABgEAEMAABgEAEMAABgEAEMAABgEAEMAABgEAEMAABgEAEMAABgEAEMAABgEAEMAABgEAEMAABgEAEMAABgEAEMAABgEAEMAABgEAEMAABgEAEMAABgEAEMAABgEAEMAABgEAEMAABgEAEMAABgEAEMAABgEAEMAABgEAEMAABgEAEMAABgEAEMAABgEAEMAABgEAEMAABgEAEMAABgEAEMAABgEAEMAABgEAEMAABgEAEMAABgEAEMAABgEAEMAABgEAEMAABgEAEMAABgEAEMAABgEAEMAABgEAEMAABgEAEMAABgEAEMAABgEAEMAABgEAEMAABgEAEMAABgEAEMAABgEAEMAABgEAEMAABgEAEMAABgEAEMAABgEAEMAABgEAEMAABgEAEMAABgEAEMAABgEAEMAABgEAEMAABgEAEMAABgEAEMAABgEAEMAABgEAEMAABgEAEMAABgEAEMAABgEAEMAABgEAEMAABgEAEMAABgEAEMAABgEAEMAABgEAEMAABgEAEMAABgEAEMAABgEAEMAABgEAEMAABgEAEMAABgEAEMAABgEAEMAABgEAEMAABgEAEMAABgEAEMAABgEAEMAABgEAEMAABgEAEMAABgEAEMAABgEAEMAABgEAEMAABgEAEMAABgEAEMAABgEAEMAABgEAEMAABgEAEMAABgEAEMAABgEAEMAABgEAEMAABgEAEMAABgEAEMAABgEAEMAABgEAEMAABgEAEMAABgEAEMAABgEAEMAABgEAEMAABgEAEMAABgEAEMAABgEAEMAABgEAEMAABgEAEMAABgEAEMAABgEAEMAABgEAEMAABgEAEMAABgEAEMAABgEAEMAABgEAEMAABgEAEMAABgEAEMAABgEAEMAABgEAEMAABgEAEMAABgEAEMAABgEAEMAABgEAEMAABgEAEMAABgEAEMAABgEAEMAABgEAEMAABgEAEMAABgEAEMAABgEAEMAABgEAEMAABgEAEMAABgEAEMAABgEAEMAABgEAEMAABgEAEMAABgEAEMAABgEAEMAABgEAEMAABgEAEMAABgEAEMAABgEAEMAABgEAEMAABgEAEMAABgEAEMAABgEAEMAABgEAEMAABgEAEMAABgEAEMAABgEAEMAABgEAEMAABgEAEMAABgEAEMAABgEAEMAABgEAEMAABgEAEMAABgEAEMAABgEAEMAABgEAEMAABgEAEMAABgEAEMAABgEAEMAABgEAEMAABgEAEMAABgEAEMAABgEAEMAABgEAEMAABgEAEMAABgEAEMAABgEAEMAABgEAEMAABgEAEMAABgEAEMAABgEAEMAABgEAEMAABgEAEMAABgEAEMAABgEAEMAABgEAEMAABgEAEMAABgEAEMAABgEAEMAABgEAEMAABgEAEMAABgEAEMAABgEAEMAABgEAEMAABgEAEMAABgEAEMAABgEAEMAABgEAEMAABgEAEMAABgEAEMAABgEAEMAABgEAEMAABgEAEMAABgEAEMAABgEAEMAABgEAEMAABgEAEMAABgEAEMAABgEAEMAABgEAEMAABgEAEMAABgEAEMAABgEAEMAABgEAEMAABgEAEMAABgEAEMAABgEAEMAABgEAEMAABgEAEMAABgEAEMAABgEAEMAABgEAEMAABgEAEMAABgEAEMAABgEAEMAABgEAEMAABgEAEMAABgkHPnz5+fXgSAfDGcO3eVbK6Yusy0PvgCl/8t9a657aLLf5d6/aJtvovemi0AbD0BDGAHJWR9dDZX3Vcfu+/yOnpHNIDNAtnzUs+fbp+X76l/zRYAtoIABrDlErY+LZtPTXV77VRD1vulzoqXpt4dyFr57npFtgBw5ghgAFtk2n2wQetTpvXJqfdPbZt/Sj1qWk/Id9lreyMAbDoBDOAMS+C6ZjaflbpeqoGrrVu76JmpP009JfXkfLe9rTcCwKYRwADOmISu62fT0PXZqRv2Ni7i7anHpRrGnpjvuaf3RgDYBAIYwIZL4LpYNg1bDV2tj09xdI9P/WHqYfnOe/XeLQCwJgIYwAZK6LpENrdKzYLX5VOczjtTD5vWH+b7z+yKAAwngAFskASvm2Rz29QXpi7X21iJtoTNWsXaQgYAQwhgAGuW0HWlbBq4Grxu0NsYqmPEfiv1oHwnvnHvFgBYEQEMYA0Sut4rm1lLV7dnaV2ubdVFoB/Uynfjc/duAYAlE8AABkrw6lTxt0s1eH1sb2MjzVrE/mRyFQCWQwADGCDB6zOyuWvqLns3cFY8MdVWsd/M92Un8QCAUxHAAFYowesW2TR4fdHeDZxVf5NqEPuJfG++Ze8WADgBAQxgBRK8GrgavBrA2B4vSv1kvjt/aXIVAI5HAANYogSvdjFs8GqXQ7bXY1NtDTNGDIBjEcAAliDB6/bZfGuqk2ywO3491SBm1kQAjkQAAziFBK9rZXOP1Jfv3cAu6uQcP9HKd6p1xAA4lAAGcEIJX9+eTcPXpfZuYNd1oo6GsPtPrgLAexLAAI4pwetW2TR83XDvBriojgv7wXy/PnVyFQD+mwAGcEQJXlfKpsHra/ZugIP9Z+oHW/me/de9WwAgBDCAI0j4+oZsGr4+au8GOJqnpxrCHja5CsCuE8AADpHgdbVsvj+1ywspd+Hhw+pdqQv56NQV9tV7p3bJz6UaxF43uQrArhLAAA6Q8PWV2TR8feTeDdutE0i8bH6b74huly7Hti2J+wPZNVOfkLp2alu9MvUDOaa/MrkKwC4SwADmJBx8eDbfl/rqvRu2y7+lnpnqBBFPSb1wVSHrpHL8G8JmYWx2+cNS2+J3U9+f427tMIAdJIAB7JOT/9tm01avtshsg1elGrhaf5F6Sj73/yPbMyWvy5Wz+czUZ023l0mdZW9IfXteiwdMrgKwKwQwgMgJ/vtl01avb9274ezqosCPTj0m9aR8xj+/N26bvF43yObG07pZ6qyOKfvZVIPY2ydXAdh2Ahiw83Iy3xP4hq/r791w9vxjqoFrL3jlc/3veuOuyOvXLqOfnbp16gtSF0udJW2ZvEdetydNrgKwzQQwYKfl5P2u2ZzFSRFenmro2qt8lr+1N+66vJ7tqjgLYjfpbWdEx+a1JewnJ1cB2FYCGLCzcrLedb3uO7l2JnTc0B+18tndLYfI6/up2TSINZB9XG87A34z1dawv51cBWDbCGDATsrJ+Y9mcxbGe/1nai90tfKZ/U+9kePJ632rbLqswBfu3bDZXpRqCHv45CoA20QAA3ZKTsTfK5u2Mnzp3g2b64mpWejaqGniz7K8/p20o0HsLns3bLZ757W/1/QyAFtCAAN2Rk6+u5bUE1JX37th8/x7quPRHpDP5qfv3cJK5L3wSdk0iLU+sLdtqN9IfUPeD2+ZXAXgrBPAgJ2QE+5rZfOCybWN87ZUg9ev5DN5K6eN31R5X1w1m1kQ62yKm6iLZjeEPXtyFYCzTAADtl5Osm+TzR9Mrm2Ujuf65VSD10v3bmEt8h65XDbfNK12U900XVqgIez3JlcBOKsEMGCr5cS6Y2i+d3JtY/Rkui1ev5zP4Ffv3cJGyPvlutk0hN1x74bN06nqf2R6GYAzSAADtlZOpn8om3tMrm2Mn0vdN5+9r5lcZRPlvdPp6xvEbrp3w2b5hVRbwzpmEIAzRgADtlJOoH8im55Ab4onpxq8/mRylbMg76Ovyabvo02buKULcDeEvWRyFYCzQgADtk5OmtvK9LWTa2v35lSDl25jZ1TeT5fKpiHsnqn36W0b4hWphjChHuAMEcCArZKT5Qdk8xWTa2vXKcQbvrqwLmdc3luflk1D2K33btgcX5H32K9PLwOw4QQwYGvkBPnB2WzCAsvPTf1QPl8fMrnKNsn7rN0SvyP10Xs3bIa75/32M9PLAGwwAQzYCjkp7jTznW5+3X4t1Znq/nFylW2U91vDV0NYw9im+O68775/ehmADSWAAWdeToY7BuYWk2tr885Ug5dWiB2S9167I7ZbYrsnboIfzXvw/00vA7CBBDDgTMsJ8J9ls+6pwp+aavjqlh2T92An5mhr2KasN/eLeS9uUsscAPsIYMCZlRPfP83mcybX1qYtXg1fbQFjh+X9eNtsfjT1MXs3rNdD8p7chPGQAMwRwIAzKSe7D8umi+WuS8d4NXh1zBfsyfuy4ashrGFs3R6W9+cmjIsEYJ//Od0CnBk5ye3sgusMX11U+XOEL+blPfHy1Bfm4r0nt6zVrfO38sjpZQA2hBYw4EzJCeUvZHO3ybW1+M3U1+ez818mV2GxvFc3pUvi4/N+vdn0MgBrpgUMODNyQvsj2awzfP1ATmTvJHxxFHmfdGmEm6e6Xaeb5m/nQdPLAKyZAAacCTmB7Cxz3za5thZ3ywn1d00vw5HkPbMpXRLvmL+hH5peBmCNdEEENl5OHL8+m/tNrq3FzfNZ+ejpZTiRvI+/Lpv7T66tzf/Oe/nnppcBWAMBDNhoOWn9smw67mpdrp7PyZdML8Op5P3c1rBfTF1m74b1+MK8p9fdLRJgZwlgwMbKyeqNs/mT1Afs3TDWf6U+MJ+R/zq5CsuR9/WVs3l46pp7N6yHVl2ANRHAgI2Uk9QPz6ZTaF9n74ax3p7PxotPL8NK5D3++GxuMrm2FjfI+/zPp5cBGMQkHMCm+snUOsLXG4UvRsj77KbZtDviujw1IfDa08sADCKAARsnJ4X3yeb2k2tDvTYnxR8yvQwrl/fb12TzVZNra/Hw/L2te50ygJ2iCyKwUXIyuK5JN16az8OrTS/DUHnf3yibJ02uDdduiJ2Y4x8mVwFYJQEM2Bg5Cb1uNh33NXqGuOfms3Ad3R3h3fL+/5Rs/mpybbhOyHG7/B28bXIVgFXRBRHYCDn5/KBsOu5rdPj6S+GLTZD34TOy+fjJteE+J/XAyUUAVkkAAzbFT6WuP7k4zFNz0vvp08uwdnk/viCbq06uDXfbc+fO/cz0MgArogsisHY56btHNj80uTZMJ9z46Olldljef+dmF/fVzP7L+78we3mvau+WJcoufVQ2r5tcG+5b8pR+YnoZgCUTwIC1yonmbbL5g8m1Yd6cz74Pnl5mh+X9154gH5jq+6F1yWm9f+piqfdJ9f/pwtz/lurC3O9MvTX1T6k3T+udeU/1/1ma7Fu7475xcm242+T5PGx6GYAlEsCAtckJ5odm87jUx+3dMEZPoq+Wz75XTa6yS6aBq+u8XTrVwHWpVBf9/sjUh6Uum+rtl0i9b6oB7L1T/5lq+HpHqhNVNHR11sBZvWF62z9P6615j/1HtqeS/f2AbN4+uTbUa1O3zHNol0gAlkgAA9YmJ5e/kM3dJteG+ex87j12epkdkPdZuxE2TDV4NXBdJdXJLlodb9UA1law99pXDWrz3RH7hdlWrm4byBqwum2LWEPYS1MvTjW0vDz1plTD2r/mPffv2Z7INDT2cUZ7YqohrKETgCURwIC1yEnlXbL5tcm1Yb46n3m/Mr3MDpiGl4avrvF2g9SnpRq6uuB2Z95sKOt/7/93Ug1l70o1bLXaAvaa1HNSnVb+uam/S/1X3n8n+tLN8+g+tgVutF/NLq9zoWiArSOAAcPlZLItEH+WuvzeDWN8Yz7vfnp6mR2Q91lbtRq2ur5c19hqi9eVU+1+2K6Fq9JA1iDWbnyvSP116nnTennehydqUcrz6X533Nlo35V9/oHpZQBOSQADhsuJ5G9nc/vJtSG+M591Pzi9zBbLe6tdBjtmq90Kr5m6UepzU20Ba2vXaP2S7diwF6U63vGpqXZT/MfUv+V9eawv4Ty9jlX728m1oe6YXX3w9DIApyCAAUPlBPIbshnZEnW/fM71MdlyeW917FZbvTqFe0PX56cavDqpxmw2w3Xo+K12UWwQa/j6k1TDWFvI/iXvz2NN1pHn2Rbkl02uDdPxbJ+XfX3a5CoAJyWAAcPkxPGTs+mJZ6f5HuExqVvkc24dExgwWN5fnWCj3Q1vl+p4ryumOovgSYLXSb8c90/aMa9dEzujYVuwnpl6eOrxqTfkPXrclrBrZ9OxZSN1PFtDWGd8BOCEBDBgmJw09pf/W0yurVwnQWj4atcvtlzeWx+TTUNXW766/YhU1/E6jgb1BqSuvdWQ0fFWrU6q0XFbs1kPZ4G+rWoNeJ3Mo2t2dWKPdhHstrcfpP++9/+M1KNTT0h1nNh/HieI5Tl3QpG/nFwb5iHZxS+dXgbgBAQwYIicLH5XNt83uTbEbfP59ofTy2ypvK8agmZdDtvy1VBy1LFebZHqunBdVLkhq93sXp96ZaoBvi1VrY7Xekuq3Qgbnvpvqos1t9Wtgav7cIXUx6baRfByqYayVmcwXNQy1unrG7x+P9XWsE5d/45jhrDPzGb0sgo/mF38zullAI5JAANWLieJN86mv/KPco98tv3w9DJbKu+r98vmSqkGr7astlveUbocNkR1SveGqk4P31bSThnf9bsavhrIGrLa4tX1u2atXv3C3P+l2VDVx+qkH21ta3WfGsiunrp+6tNTH51qt9v5IDabvr5hr10RH5jqPrztmCHsztn8+uTaMJZ0ADghAQxYuZwg9hf6/lI/wgPyuXbX6WW2VN5TnXCjE2zcKXXLVKeXP0rLV0NPg1enhG/oeXrqdalOkNHb2wLVsHVi2be2yl0i9aGp7tdNU33/XyPVEDavYa8tbf07+aXU87MPx1rzK495z2xGzvTZY3Wz7OezJlcBOCoBDFipnBjeI5sfmlxbuT9PddzXv0yuso3ynmqrU9f0ulXqi1Pt9tfugIdpS1a7GHbiirZ2tZ6faovXO/OeWfqX4XQ/2yLX1rC2hN1kum0wa4DcryGssyL+UapdEjvb4H8cZ7/yePfL5usn14Z4RHavrwEAxyCAASuTE8LOSNeuh4dNSLAsPblu+OpMbWypvKfautSJLr4kdcdUW8Ha7e8gs0WR28rVmQcfkepaXH+fOtakFyeVfW63w44Fu16qE1h0kpCOGWvXxf1dEhsS/yH1m6l2KXxldq9dFI8sD9XwdtvJtSHumX287/QyAEcggAErk5PB/prftZhGuEs+zzqGhi2V91NbjTq7YVu9Ou6ryxoctL5Xv9w6hquzGL4w1eDVZQna1e/Ya2+d1nTfOw6srXUNYbdO9bl0/2chbLbP7R75sFTfz6/Lvh65S2Qep4/RmRU/de+G1WvLXbsiNtQCcAQXGqgMcCI5EfzGbEaFr58TvnbCpVPtwtf3VbsgtuXroO+xtnx1RsPfSf146ndTL0m9eXT4qmmI6jizdnt8cOq3U51dcX+4ahDrRB5t1bt56jNSbTk7sjxOx2Z9dapBc4QGyPtMLgJwFAIYsHQJX9fK5rsn11aukwCYEnvL5T3VMV4dS9Xw1fdX195apK1I7crX2QQfmmoAe3KCyWtS/5ZaW7ePPnZ0nbHuW6edf2SqXQ4bFvfrZCINYZ+Xuur0uR9ZHqMh72sm14a4Wfbx3tPLAFyAAAasQsPXsX65P4XvzAlnWxbYUjm573dV19jqcgadyOKg91aDTANOW7rahe83Un+V98dGTcqyL4Q1HHZSkEX798GpjhVri99H5RjsHyt2QXmMdrn85sm1Ib4nu/jZ08sAHEIAA5YqJ2H/K5vbT66t3L1yovmo6WVOqCf38V6p90m9X+oDUhdPfdC0Lpm6VOrS0+rl3tbqf+//+4Gp/tveR+/rWIHhILmbfk99YKrBq+OmGr4WfXe1ZWu2sPEvph6SelnqWNO5D9SJQTo27Y9TbbGarTM20+PXRZ67vlkns+lxPW4I+8lsfmFybYj7ZBeP1VoHsItMwgEsTU6+uuZRZz28/N4Nq/WofH715JRTmJ7Ud22qTt7QMVbdzqon0x3j05otNtz/v138OvlCt52lr9VWnH+e1mxNrXflNTrVl0x2rzNodrzX16U68cZBCy13X7qgctfR+tPUa/PQx5pBcLQ8tx7Xy6W+NnWXVFu9epxnGsp6XH8tdf/UXjfKbI8sj9HXsF0d23o4wo9lH79tehmABQQwYGlysteT304AsGo9wf+sfH5ZBPYY8vq0Jakh60Om2/3VwNXFg1v9/zoOqcGsoauhoLP4ddvw07DTiSxasxD2jtRb56ohrIGsMxH2NZtt35LX7oIz+2V/G/Y6U+BXpNqqeu3UIu162PA163b4yuMGlYNkF/q8ezxavdz7bevVUtYOy/33mH5BqouHNyQtWky6CzT/Sqo/OvR4Hkse4xOzaQj7sL0bVu/W2c/OgArAAgIYsBQ5yWsXscdPrq3c/85n189NL7NAXo+Gl7Z+NFD1pL7VMHOlabWVstU1tS6bmk2HPquabffrbfNfHLPr3c6qAasBrDMRdoHhWb0y9fLUq1P/nNdxfgKKd8tT6P43PNwr1bFQi8JJQ+AbU+1y2LWzXpz7bFfEE5ket4aiHrd2d2w47XHr5R6jBs1OnNHq43b9ubb0Hfg8DjN9vLYct3vl3VNtEWvQ2+9VqU7a8f+l2go2f/wvKA9zh2x+a3Jt5TqurVPTN3ADMEcAA5YiJ3ijFoB9YD632l2LOXkNeuLeFqu2XLXFpkGrMwZeI9UZBLv4b1u6+t9nXQtnLVzLHhM8C2Gz7oqzaijr2KcHpRrY35bXc2F4yfPpxBvtdtgZ/a6Smt/HPkYDUCec6NTuT0qdKAzlsRqEZq1dbSm6TuqG0+2Hpjrlff+fPqeGsAbJP089LtWxZl1b7IKteovkoft6NGB28pqu3zUfNDuO7S9S35V6dh7nRAEzj9OZCr9ncm3lfjb7+X+mlwHYRwADTi0ndj1J7jpLq/Z3qc/I59bfTK4yMw0Qbcm6auoTUu2u1wDWMNGxRW3JaYtSw9Y6zVqs+n7pWljPyOu5cKxWntL1sul4orau9jnMaxDqBBY/lnpC7qf3eyJ5rAbRBtSbpm6Uamht62C7azYg7Q9/DVrthvi6VB//91JPTP1T9uGkIayvWyew6SLN82Mo+0Xd0PrDqT/NY7yhN55EHqcthV8yubZyd8i+9jUGYJ9l/+IJ7KZ2nRrhB3NCJ3ztkxPqS6SumYtdH6tjpb4q9eWphuKbpdqC89Gpdqlbd/iq7kPD4Memrpia727X51RtqfuYVJ/boq6H1YWM24r2rJOGrzxOZ2xsF8OGvDunvizVY/lpqR63htb578ruc/evrYqfk2r3vs9MdXbIk36vdrKNTp/fYDev4br70f3sJCSn0anpnze5uHKdFbFdKgHYRwADTiUnWHfL5jMm11bqETnJvt/08k7LMX/v1Aen2mrStaLaovFNqZ5cN0C0G1tbw9qqs4kaKPr90+rleb29rUBthWr3v3aVnDdb7+vRqQaxY8mx+5+pdjds18bPSnUSjM5G2G6HHe+1aL/mNYh1qviGry9OtdWxgfgo/3ZeuxV2vFyf16KuKW2Fa2tmg9iJ5W+ojzFq4fK+P+8zuQjAjC6IwInlPLMtE3+Z6jijVWq3rnY97JibnZXj3dajnog3lDRktdXmk1LtKtcg0HFKx2nl6lipHttuGyZmoeg0el8d69Uvl97n7H5noaS3d4bEdkHsjIV/mdf1Imt15Xk2OH5uqi16N081KO3Xx2jXv97Hr6b+Pvdx5HFfuf/uzwel2rr2hanOPtiJMHpb9/e4AaqP3UlFuibdb6YaDPsc/z37daQv2elzbotau1P2B42+lvt19sOnpL4/9fSj3u9B8ng/kM13TK6t3Jdld0dNAHJiOSZtmb3atNpC2+1Bi37PdExjX/uLVJ7vibuJAttPAANOLCcsPYHridyqfV8+q0ZNHrCRcqwbDBq0uihvg1fHeTU0tKWroewkoaEn9X+fave3tq50vNNB3f2OqtPMPyfV++++zcagNWB0Hztuq13gfjnVRYjfmNf2IuOm8lz7fDrxxmzyjfkWsE7s0RP6n089N//+yJNSTI9jT7R7DDtpTI9nu8mdqmUpug+dGfEFqY4Ha9fIF2TfjrQWWfarx6Zj0O6RahfIdn/cr8+5k330vz8m93uqBaanj/dnqR6HVevrfaPsc99nGyFPv11z+9w/LjULXX3/L0vf5w1jDeM9zk/K8+/skAACGHAyOYHpDHVt/frwvRtW569Sbf061QnnWZXj3ODSX+Hbyvgpqc6W19DQk8WjdjFsGOrx6zipBq7+Ot/Ls3FT/bW/99+wNN/atF/DRFt2GtzaCtcWo3mdHbBrVv1tqmGu99kg1jFo3d+2GPREtCelnTL+Il9C02DQ1rx7ptq9tf9uf6tcg0ifw0+luu7cgbMozstdN3x1X9plcNby1cc6qNWwwbDPt5O/NFh2PxqCex8HjcXq/rV17g9SnYDiyIsnZ/8aVLveWcfwXb+37dPj1OfdLn1/mPqH+WN3XHm8dl/tLI4NvKv2Q9ndUS1u7yHPdRa42sW01fflaA3oDeZtyW/Lbz/bgB0kgAEnkhOarkn0LZNrK3XbfE71hHOn5Pg2iDTAtHXmk1NdrLfdDjsRQwPDYV0F+8HeUNJf4dvq0MDUk78Xp9pC89JUg1JPvBvoOvteWwIavvq48xpEej9dx6uToPT+2k2urVPzOltfw1PDeSeUaOhp61LDRR+vtzX4vT2v60VavipPu61dnZyj45Tu1JtS+zUQtSte14H749zHkb/Ect8NjJ1Z8RtSnelwPtzN9D577Bp4esyemerxaoBsl8/Zc5+16u3Xf9uZHp+R+oVUuyX+41H2M/vX49/X+H+nvqi3zemU+33eD029MHd5pOB5mDzmt2bzo5NrK9V9bSvYsG7EeW6diOaWqQau/siwafr39JjUb+W4NAgDO0IAA44tJzY9Ce0J9lFbYE7qF/IZ1YkRdkaObU/oG1oaFroIccdCtcWmXdJ622HHvCe5DTVt7Wpg+utUw0O7BDY47QWfVFtk+hg9OW1rS1vU2hK0KIz0/rqgbk+cH5nqfbY1oZNWtBvkvAa8b089Ja/dv0yfT2sWGnt//5H/tvDLJ/97Q2db+jqhSEPnvAbJtrA9JHdx5Nn8pvvRk/CGr3bxa7Cdf77dpx7DdidsK1af72NTnW6+gaz/f1t8O9NkW9DaGtbjuEjD0pNTP5Lq2l0XbMHNLva1bcDu1Ptf35tS+7X1cDZ27sm5z1MHsMrjdhr9Pp9Ve3j2edFrujR5Lp28pVP5d2bK/v2cFQ1iXRvvQTlGDfDAFlv0ZQtwIT35XnX46knvD04u7pS2AHX9rs5m+HWpjlPqZBGzcVQHaXiYzQzYE+quGdUJHXqy3l/XO1bqVanZ5ADtfteT4YavTql+UPjqrHldZLuTXXTB445DaivUe7Re7fPu4JDHq/9K/VvqX1MXmpiiz78hZFH3xtlzbMhrF8fjaJfBHte2MLX75EHPtyG1Y9N+MdWw85zs7mtTb0r12DXItvvk01OHdS3sMW2rYrv5za/rdZCeeHdGxz5OA998wGrYawDse2E+nJ1GF4Bua9+qfX4CUruVLl3u98aptg42ODf0nqXwVZ+d+rXU8/I8vjPV9yqwpQQw4FhyYtCppTs73ar9VE54XzO9vPVyXDstek/ae+LYaeX7K36nR+9aWIdNstGT9rZQtaWrXTV7EtfQ1QV3H5dj2K5qb0h1bFIfpy1Mbbm6TardD3syP9+K06DTFpsXpTqWqV3eOolAQ3Ef70ItL6cJB20pa0BaNBlIA09bltp1q61Bx9FxdO022HA3P8NgtdXrFamHp9oS0davl+Q5z0/w0X14dqrjd7oPBwXR2fPouKOr9vXtjYfJY/W4d5xdx5u15u+7r1PHn/V9srQAloft6/xdk2srd48ci042shS5r69M/WkuPiHV1vIem7OsSy90psvn5nn9fKpdZYEtI4ABx/WVqcMmaliGZ6V+enJx++UkqyfrnVSjrVHtOtUubg1ii1qBqifqPTnvSXpbpJ6U+vXUj6factMxUp1d8CJdmaaP0/FVt0r1xK5hZF7DVVtfOk6sLWmd6OJpqfnAc1Ar1mmDQfexsxQumuSirV8Ngf8y/9yOoMGlE8csWlOsz6Utaj2R77itzmLY0PoeQTO39bi3VXA2lq4B7aBj0efQ17En1ZfM8T/qd267j7YlbP45NoA1YCz97y/Pq906O4X+qrVlp11UTyXH8stS7Rbbltkuhr1tOj6xs4A+Kc/zD1MdBwpsCQEMOLKcBHTmsFGtX0eaOe6syzFt4Ohx7Ulkx/108oW2ELSVZlGYaShoK0m7qfVX/y5O3V/M212uswq+tccudZHwkMfpfTXkdXxVH6vha9H4pR73tgT1xLYtX+1y947c3/6QcVDgmOljnTSI9XupwWVRUGoAa+vXfKvUUfQ+29rX4z2vx6qtWg9OtQvnoTMr5r81hPX/a5fMTjXewNoWxvnj0uPbMNn1vVqLntMinaik4Xp+H3pMO6FJ7+ekx/cwXVLi2Itan8A35O3YyVCOLf+u3RgblBsW24K7C26demKe96mDK7AZBDDgOBq+FrWaLNOjcoL7wOnlrZYTqp5Et1tcQ1dn/OtsbT2+h51gtyWq3Q27BlZbazpe6fk5Zl2M+LCJHhoGGr46AUVbwRZNPd5g0W6fDXOdFOAVvc/UfPhaVwDr82tAONLaWnMaXBbNetiQ0/tty9osfF3o+VWnpv+TVFscfyfVsUe9n/3/tseg4/ba6tMJQI46brL307A53wWx99dgvpJp4/O0O+PjiHX9qj82HFn+VG6S6nH+o9Q2tnhdSFs975tj8JhUZ+EEzjABDDiSfOn3xG9I69d0u9Wmx7NrbzUQdcxXf81vN7lFwaUn9T0pb0CY/frfhYifkJPmC64zlcfqCXvHknXija4vtWi6+T5GW756/23ZeWXu96Cg0//3oJDS+130HI6q/7ZBZVHrXPenU+DvjWc7pt5f73fRvjXo9Pi+M8/5oOd1EfnfGpDaBbETlLT7Z6ebb2vY/DHr92wn4ejxP2oAa9fDRa9p972v5VHv59jyvNr1t6//qn153pedeOJQ+X+unWprbNfPWjQ1/67puNC2ht0nddQWVWDDCGDAUXXsV7tRrdIDcwLYE9mtlZOmagtPJzOZTbbRcUIHjetpOGirV6d/b8vUz6a6wG/XpbpgN80+WDYdN9Sp7Bvy2g1xvhteH6PBpie5DXYNeg0kB7lQSOljLgo6R3XQv23wave8kwSwhpqGo/l972P1RHYv2EyP11F1P9oS9hepR6c63X+D2X69v85c2GUE3ueI93/Q/9PbGyRX/d3dVrDjjrE7ia53dqAcqs4E2h8E+tnDRXXmyifkGHUpCeCMEcCAo1p161fDxC60fvVEv93RelLZtZcaag8a79Vg1Fn/OglGWyba8tWxSm9JUD1wLa05bS1pAOhsfFdLzbcs9T4aGhoiOr16u9LNj/k6rqOEjMM02Cwag9Xb+j45yb513Nii6fO7rw1gXQftoDFiC/UYxX+mGuw6Ju9Vqfng2vtvuO5YsHaDPMqx6Wu0qHWjz7vBaP45LFWeT98LI7oi3iYBYuH6Y7n9h7Lp+73vXRbrDyqPyLH68ZTzOThD/MECF5Qv9ztm0/WTVumnc+LX2Q+3Vo5jT6yvnerxvHmq3dLaGrbopLwn2i9PdcxLx3rNxmS9PXWcANLp1/vaNegtmqK7Yaez+nU809Om93/gBBRTffzTBLTDzELWQS0wJ33ctpx1ja9F99vvwk6E0lbJhuGTaPA6qHvkLFA1gM0H4EUamvv/z78v+tx7/yNapzqxS4PYqnWtu3fL38jVUm2JvcfkFo6gi5b/UY7b0mfHBFZDAAOOYtWtX10Edqtbv3Jy1BP7LszbKeA77qvh66CT/bbWdEKETrDRLoHt3vb6BKMLdjncbxr42vXtpqlO7rGodaez7XU676emOhHFhRwlfB2llecgDWCdVXDRc+13VoPJSb67ulbaojFaMx2n1WUAOlHHSXSfDnvefS3a+nmUfe/rtOj/7XE/LJwuTd5rfYwRrWCflffpXXoh23Y57Jpkba3leD4v1Qk6+oMLsOFO8iUG7JB8oXeMwQUHy5/Sr+eE7ygn/2dSjmFPpq+c6pivTindWfEO6mLWlpqGr07u0AWB2wpx7C6BecyGgXara7fDzn64qPWrJ/NtZeviw6+ennQfxYVCWB/7pCGs3eu6DtaiMWhtGWpAOkor0ry2fnWSkY6nW/Q8G1TbpesKOXRtqTqutmR24eWDXtfWhVoWZxrM25qxKIA1nC8ay7Z0eT90Mo6OOVy1r80xbytvuxw6Lzm5vn+fkmN5uclVYFP5oAMu5DbT7ar0ZLKzyG2lnAw1LLR1pTO4Ncy2m9tB3csaOjrG69dSD0l1Xa/5aeCPqp/vfay26nR2xfnWr95nJ5Do4z0v1dBzVIftz2nCVzUcddzb/GQW1SDbsVSLQs6F9H3WKewbOBc914unumDy56auPH3djiT/b49txyp1Vsvez7yGyganhr9FXRTndQHuTpYyvw8NcN33RcdmVbq49z9MLq5M1wS72+Qip9Suxs/Me7J/+8CGEsCAA+VLvN1ZVh3A2vrVGf621RVSnTr6Fqmu+bVoIoYGmp5UPzHVLoePTL08x6Vd8U6qn+89Gfvk1EGTP7S7VxdzfmMe66gTO3RfLxQITxPCGlDaWtWWwHl9Hg06DWLHkufX8NL7bXfLRYsNN0S1m2a7cn1B6lrTYHWo6f9zzdSNUm1tbEvYfj1WfS4NlZ3m/sBWsNxXj1lb+RoyF4XmvkbtStnJRC70GixF9rethg1hnB1tiX1R3k4fP7kKbBoBDDhMw1d/iV+ltvZsnZz8vFeqAbbdgnocD2od6Yl0WzWekepCs+321fB10FilC+pjZ9Muh/0VvDMuzrcY9US+Y7+em3p6qq0zx3VYADhtAGvLXEPGvB6/tibOh5yj6nP+y1RDRQPv/HPo/XacXruJtsXyRjmWV0pdPHWR55Or75dqV69OcNLXt910Gw7nQ1Mfo2McX5u6UOtXX7fZbIyLuiD2dWuQO05r5TI0gP3V5CJnRN+Hz8t7dNWTJwEnIIABh1l169fvJGiMmGltqJz09LO1Y5V68tNuhw1hi2Yo68l5g0anfu/4l04D/3eHtZIcUVuIOslHx531hH6+K1vDXVsd+7idAfG4kzocFr7qpOGrOi6t+9SWnu7X/sdqQGrouVSO8UkWI26LYhdP7rT+XUdtUatfw+p1UndKdXa526XaRe6aecyrpq6Smo2r64QqncWvs1r23yzqGtnQ9bJUj/WFJlHpc+rzO2hB7u5vp7vvbIsXeg2WJu/Hvg5awc6mp+X92gXYgQ0igAEL5Ut7NmPfKm1l61d0EoW2PHWR5c5A2Jab+c/bnkD35LxT7/c4PC7VmQ6PG4YWaVD5pNQVU4vGMjWItMXtb/p4qeOezK/y5H/WOtdugg0a+8PorHteJ8zo9limz7P32UlHGnbbkjQfwhp8GmA/KtVuhQ1YP5K6X+r/S/1Y6memlxvQOmasx7n/Zj409b7b0tYFmnu8D1vcuvr8el9tdV4UwPre6HisHp9hAaxy6Lr49+9NrnHGdMFmU9TDBhHAgIOsuvXrMTmp69pTWyUnOv1c7cl7u7FdP9XxGIs+a9sK1ZPyh6W67tGxp5k/RANYx3985N61i5pN5NDJNzot+3H1xP9CJ/8nbgGbhqRZN8T51rneb08k252zx/gkeozbCtZ11Rp6OzHGoufTMNTWw7YitnWrr2WnR2+gbjDr2LqG7LZWHTQmrWO/npJqN892Q1zU4rZf76cTgSx6bt3H7vvfpjqWbR20gp1d/REA2BACGHCQVQewbZ35sAv6tsthW0banWxRC1RbQv4m1ZaYP011CvilhK8EwNn4rwaHRWsC9bE7Hqnd4jqe6KQOCmENSScOYFMNid3Hzlg43yLYcNnwc8U812M/TgNetFXqmanfTbULbAPNYd0++zjtXthupZ2hsC2ci17X/dq19IWpLqT9vDzmu/rA/Q+LTIN7778BbFFwbnhrWGyQ+5fD7mtV8pCdwOQnJtd2Qn8k6XuwE9W0i/B9U33+D0x1jb6+dxrmT/N3NEq7zv709DKwZgIY8B7yRd0JBXqSuyrPyMlc17jaGg0D0Vn6Ou7rtqmu9bWoZaRBq+Gik208KtUJNy7UMnIcbSFq8GvL26L1rDq2qtPON3Sc9HGPcvJ/mhDWMPSq1EtSPQne/3gNP23d6wQjl8gxP+n3WMdSPSn1gNSTU21xazg9LIgdRY9puzn2GHctt73WzdSF9L3SWRjbBXFR98p2G+1aeQ1hy3y/HFdbwRoCt02PbbtZflWqn30fmr/L90tdJXXT1J1S90x9S+ouqc9PXT91tdRlU32/d6zg3VP9bOsPLJvmG/L30sWugTUTwIBFVt361TWutk1PoDs5w81SN0y1NWNRCOnYps7E11/QGzIa3t5nWZW7a5e4vXCSWvQZ3+6Hbf3qzIcXW3Qfh1X/TaqtPwcFrN7e/2fhv99XfezOFLnofhqC2j2yC1K3G9/+ANbHbtfAdv9bNMPjkeSEuS1rDaENYV1suNP/z45LH/+4LUz9/9t1suGr48t+OdUA9rrpY11IWy07nX1nQFzUutYA1olD1tL6NZOHblBpaD3r+jw66+i3pD4pz+vyqTukfjX1rFQD+rHk3zwt9TOpL0/1b7DLTtwh9fOpRcsqrMNv5k+uLfTAGp3Lh8T0IsBeGGgXq86Qt6gb1DK0a9bH5bPnNZOrZ1+OWYNOWy/ukvri1Cf05tS8fuD2pL/Ht13gFk21vkjvq0Gj20X3u19P5Lv+V/ehl+c1AHbsWadiP8n0822B6lTwbelb9B5pC1u7ZjVcHrSO2ayVqOuQdXrzrkN2kZCSY9oQ0jFX35PqhCL7p/BvQOpjtFvYQ/JvOynFiUxfu953T5a7aHWfV1vY2hLVLpwX+qGyr2mPYyfH6OvaSVUasDvF/9/PP6+DZD8avr4x1TXIOp39vLao3D/1u7nPtqCuTfa14aJjCM/ixA7t9vvgHMMHT66OkWPWWUm/PNXZNXt5nfpeumGOwaoX2AYOIIABF5EThXZR6YntqvxKPne+enp5K+SYNbT2V+V7pNoNqSFlkQaHnpC3peQ4H74NAQ1gh7U8nRV93j0GbWF4aqqtoY/Pe6LB7SJyXDsT5/9KdU2u/WGv99GTx07i8sOpV+TfHynoHGb6OjZ8dYr5Bth2I+1tDRo9/l1bqa9BX8d2JW3A7Hiy7kvHAjVMNnw1eB15TF8et11FPyN171Qfd/7908drYP/e1FNz36PXAXsP2efOBPl/Jtc2Xn/0aOBq8Frrshc5bg37syDWiV3WpUuAfMn0MjCYAAZcRE4QOsC8JwercvN87jx6evnMy/HqSXlbnO6WatfNjr86LCT1Q/ckH7xHaf06K/r82wrWENYJDr4/9dd5X1zkuOTYdjr2jkf89lRnPtzfNa+Bq61NHZP02PzTU0+EkMdr0G1X0gagth429F0h1de047IalPrf+9gdi9WxXZ2VsF0DG8LaEtZxZEee2j+P2de0LSJ973Ra+7akzr/O7b7W4/T/Ui/NXa9zDNie7HZbJRsKN1lb6X4j1eC1cePWcgw7VrSveWfVXIcfznHpj0bAYAIY8G45Ieiv/R0H0wkcVqG/3nd81NbIMeushw0J35bqGLBFE2+wWINMJ6to17uOn2nL4Lvl2HYsWWcFvE+q3RHnu1Q29HQyk67J9R4B7jTy2LMw1lkXG7zaAtbbZi1g3fdZ4HpHHvpEs1hOH+cWqbumPivVv8F5nYmvyxX8f3mco0zoMUT2vevXtdvtJvqh1A/meG3K2KuFcgz7vvqB1Lfu3TDeTXKMnji9DAzSD36AmZunVhW+6qHT7VbIyVNbKtpl7JapLg4sfB1Pv4Pagtjg9B7hKSeGDWQds9aufYvGDDaQtSXm2qlOPrI0eez/Sr0z9aZUJ9JoN8cuXP2S1MtSr0y1q+E/p04TvtolreO/PjF1UNfVPveOKTvJmL1V2sTJOB6Z+oy8Jt+R2ujwVX3vpPrjTceO9sev0doCBwwmgAH7de2qVWkXsa0JYDl5bnBoF7lPS904dRYnJFi3TkLSCSW6bavSIv1vHSvWGREbdPYHtQaWBt8e/4+dBuKzpIG9k390rFufR1tD9utzbUtbuzhuXABLcGjLSWd63ATtYnj37NMtU11W4EzJPndNus9MrXL87SK3zp/NHaeXgUEEMGBPvoTbzaotYKvy0JxkbNP6Qe2a1ok3umZQg1gD2X49eW5g6CQNDRGdOGHZ1XFInU2w1ct9rMMm+Gh3uf3/5iQ1e5wGg0U6PqmTU3T/Fv37VmctbMvWc1JdiPoNeW8cFMAaOp6falfFrtU1/7gNvp36v7MXXirv4/3jxDbWNCy2Ba8n3Q1gi/a7x7ITSLQLYmetPFFL24ptQitYJ9i4Ud5DnRjkzMr+vzbV8bffMLllmG/O23H+8wtYIWPAgD35Au4kAH8wubYSXcy0EwmcedOT549KdVKEz091yvJ5DUJt3ekkDQ0dy/6wnQW82bip/qDWSSM6oUPHpc2fUDXgvCDVqd8PCjtH0XFZDZydFKPbeQ2bL0x1rFID37w+dm/vf2+o6pT4f5f3xoHhYnpy2PFRd059Xmr/OKneX/9tx4J1TNITc1/dh42W59TWrh7DznzYGRAXLRnQoNtZ+34x9ft5XmuffGORPJe2UK5rRr+fyHHpWl5bJce064d1bbpR/l+O449OLwMrJoABe/KF38VCv2Zyben+Kp81baHYCjlWPVm+Qaqz83XtqLYe7veuVNfBavesdh1ri9AqPmwbvmYn5Q0pN021G2lnZdzfna0hpfvQ7k0N2acJYG35a3Bot6W23MzrAredWv7pqfeYWj762N3vtoJ1Eo2OsTp0f3K8Z4H3VqmebDfwNgju1256Hf9zv1THas2C6UbKU+rz6Zpfbe3o5C2LeqS09avhq113n5fntJFf2HkufQ4/Pbk21FaHhhzXr8zmVyfXVq4/iFw/x7MLoAMrJoAB/aLvyXsHgC9qyVmG78tnTRfUPfNyrBoGuhBt1zL70lQXJZ7X7nVtkfmpPO8GsJXLbnU8UU/Yum5WA9L+CUEaRhp2Oivcz+3dckJ5nLY+NXx+R2rRjJZdD+tHUo/MYy1txr7pcW/Y/b+pdjmcn3SjIa4tfJ2W/lF57D7fjZSn0vDY59IJEPpcPjg1r69Z/ybvlXpMnk9bUTdSnk9fi3YTXbSA9KrcOcekU8xvtRzbr8umC3CP0M+rb5peBlbIGDCgOvZrVeGrOs5nW3Tihx6rho/L9IY57Q7X1q8uEtzWoFEaUC6Rauvc/Gd7W8l6At8ubcsw/Je7nBj2MXtcOx17t/NdFvv8u15Xu9J2Qo6DZhRcq+xX97NdRDt7ZmdwXDTtfHWsXcN7x39tdJfKvDRtqfvtybUhvmAXwlflefYHk1FdLL8xb891Lg4NO0MAA2qVsx8+NycRHSNy5k1PnjtbXU+cu110kt8xX09L9eS5J9GjzALYpVIHBbB2QzytBqHDAlj3o7UK7bbYxX87Lmo+3PYxGz47nXt/ULj69PXaNH1tuo+fk+oYuoMmDWmo6Wx+r8/fz0aO/ZrTiTBGuFmOx8Onl3dCnu9PZNMW5xG0gMEAAhhQXeR2VR413W6DntB3vE5/JW7LxfxnaLvBdZKLx6b+ISdOB80UuArdt47P6qyAiwJYw+CypjFfSwjL8Wy3vHZr7FivzqDYsXb796NhpuvY9QeFG/VyMtjGzO6WfWnXw49IdTxkZ8/s2MFFx6nrV3VM27NSI0P8ieW16Zi/P5pcW5kvyeM8fnp5p+R5d2Hpn5pcW6kvzvu0k8IAKySAwY7Ll+2Vs1k0mcKybEX3wxynfl423FwjtWjR3IacTjrRYPCXqWV197ug7FtP4jvpRvepY7/mT+obDHtSv2hWwpM4LHytWlvx2gL256lOGDA/2UaPQbv3dXr3jrO6+PT4bIIG5L53Gr7aXfKgcNjZM9vS96qceG/a4suHWWUrWNf4+p3p5V11n1THOa7aF023wIoIYMCnTLer8KIt+sW6weZjU51hcNE07w03DV+djODNed4ju431s7ytKQ1hi8JGA1iDyzJnBjwohPXxVxZ4pse1YbIBrK2r7Za4fxbFPnZbwtrKdPtUp+Vf+3iwZMDuUyeruEWqk6QsOkY9pn2N2n31z1J9nmdGXpuOA2twXLYfyn2f6TW+liHHoD/wNISt2u3yfm1XZmBFBDBglQFsmybfaMDpSX1DWLuSzZ9AN+A8JdUANrLrYc0C2PzU7DMNKG1JOXCtrWO6UAvYqkNYj2/XGntcqjMFzrcS9bE7vqqvV6d675Tv69bxaR+fagtYA/wifV5dbLpBvrWsFsuROm3+Mj0gr/eo8U8bL8eirYC/MLm2Ml1P8HaTi8AqCGDA9abbVdiW7oc9oe8EF518Y9FskT1Rfk3q2anX5iRpdBe9TQxgK5VD/C/ZtDvWY1J/n9rfClZtoWzw+uzUDfMSXm76Oq5Lx351rGUnb9m/RMB+DfHtvvqcPL/RrahLkX1uAFtWK1iXMrjr9DL/ra1g/eFhlQQwWCEBDHZYzkcbKjpZwSo0iGxLC1i79rXVout/za8/VQ0Dz0t14oR1dBvrZ3m72R0UwBqYOmHFslrm1h7Aphq8GsDaGtbXYF7H7LW73+en2hrW8WBDv/ca+uLiudiuq126YNGaX9XXpmuXtethJ3I5y74+1bXwTuOF+fy45fQy++S4dCKaVXdFvEXet6vsHQE7TQCD3bbKL9iO0dkWHQ9xzVTD13zIaRjp2Iy/Sr0xJ0ejW7+qgach8aApzbtPPcGfbyU6id7XrA4yKoC1Ve8VqUenGsLaYjS/Xw1hbXmajb36gCaibEfpa9Lw1Zbmtn71dVqkywS022FnPmywPLPyJ9BlGL5icu1EGr5WOTHQmZfj85vZ/Nrk2spoBYMVEcBgt62y++E2BbC2WnRmvQax+ZP3nvR3zaa2gPUkeh26T+1yd9hnesPXMgJYHRbAZsdn5SFnGnY7CUdbWtt1r8d//jk2AF061RD2Jal2SxwyNf006DWwd9bDPv6ipQuqz6Prx3V6/VfnaS1zspS1yHPoc2mL33Gnpu9EHn2duLBlj7eb90V5Cx/Uqg6cggAGu21V3Q9rKwLY9CS6Aay/yPcEel7D19+kegLdbn7r0H1sHfSZ3hP8BpODQtOydT9WHsAqJ/od1/aqVBf7bghbtNh09+XyqZulugByx2ON0LFenYWxYwdnk7fM62vSiTc6bqqtqOsK8UuX1+apqVvn4lel2lX0MF1a4A75/1tnvQvmEDlOPWa/O7m2EldJaQWDFRDAYLetKoD9fU4OnjG9fNZ1bFUX971Squs4zeuaTZ02/G15zstqYTqJC4WeZQWw3sdh9zMkeO2X497ule2694hUw8yiFqSGoa55d5vUJydXX3oarlepgf0Gqc5+2PGW89+5PY7d986c2bFff5vnsqyJUjZGntOvphp82wXzG1L33le3Sn1Y/vv1U2394ngeON2uijXBYAUEMNhROffsdNidHGAVnjTdnmnTE/SGryukOpZo0Ql0Zz/sbHzrXjD3Qp/ny2wB27gQFg1eT0+1VaBj8hbtX1/DhqG2ynxa6v1WFcJyt23t+vBUW906ecuix2n31Tekus9PTA1bvHsdErA6Mc/9UvfaV49InXbCjp2VY/fwbJ4wubYSXROsn3/AEglgsLuuMd2uwlYEsOhJc7urteWkLSjzJ9E9ye+MZC9JrbPlovvVz/ODwkT3swFsWS10h4Wv6n4ctC8rkRPRHv/OQvnHqXZJXDTjY49Rx4N9ZqotMu1iddCU8KfVWTM/PdXJWw5a1PatqbZ8tbtuZ0BctM9wIatuBVtlV3XYSQIY7K6efK7KtgWwjuOZH7/T1ouO12nLS1sx1n3yPAthB2loulBwOqqjBLB16FT07Yr45FTD2KL9nK0P9hmpz0196Llz5w6aPfJEcn8NdW316hpkXdR20aQfXTuuQbEzOL4gAfLfU8t6fdgtDWBthV8VAQyWTACD3bWqANYFZDumZRvMAlgXX56fPrwtLq9ONYC9awNOni/0eb5oivaT2NiQkJegIbgtSR0L1qnQuybbola/vq5tAf6CVCfIOKiF6tgSvvo6NOBdN9Vujosmbuk+zboedqxk9xlOJO/7/m2vshVMAIMlE8Bgd7VVZxU6E922aMtFx4BdLjXfStKJHroG1aacPDdUHNTy1NA0q2U47H66D/1uOWhfVq1j8TqjYMfFdG2wg8bmdXKVzkx4+9S1EpwOWp/ryHIffc6dqKXTr7eLY2fPnH/f9Nh1psbu2x+mOvHGsrqGsrsawFY1g+Y18ta2LhsskQAGu2tVLWAvn27PtJxw9MT5kqmOGVo0AUcDWGdAXNfiy/uNDj3LDHNL1TCT6tiqjqvqBAVvSrWFYF6PV1/btlJ1ooyrTV/z05iFurYYdJKbXp9/TRq2uuBy960txVs98QZj5D3fH4JWORlHx00CSyKAwQ7KiWanxG7LzipsRQCLtn59SKohrCfm8yfSDWCdgKMLAa9b921Wi/T2ZQW0o4Svw/ZllI6v6syCnRnxoJaBjutrF9O2VnVM2GVPGsLy73pfHe91i9Snptr6tSi0vy7VE+XHpf4pJ86LwiGcRN/vq9K/D2BJBDDYTaucgKOLEm+DnlB3JrsGsHkNID2Z7vivTQhgdaHA02CxrM/8C4WwdYev6qLYL0t1VsS+Jw9aJLsTZrS1qhNmfErqkglTx9r//O89rv1Bo7MedlxZJ+CY15avvleekmoA+5uEr61b84u16oQuqyKAwRIJYLCbVhnAtqUFbLaO00EBrCf0nUih3d3W7SgtUssOYIfp4601hCXcdB+7HthTU+2O2O6iB03I0RDWVqsvS10t9QFHDWH539pSetlUux3eJdUuiO16OK9j0RoEfz/1HC1fLFveUy/Kpt1bV6Gtw+2uCyyBAAa7aVUTcNS2tIDNuiC2u+a8zrb3llRn2WtL2Ca40CyHywxgZ0JOSPs6tZtoJ7toy1PHWx0UwvpaXy/1JanOkDi/7MB7yAnpLKS31etOqbak9f0yH976unTGzD9KdZr8VU2WAMaBwRkggMFuWlUL2Gty0rspgeS0Glg6Pfn77127qHYdawDbhOnnq/vQsHHQbHoNBH0+R2rVOYI+3mHP+9DHSXD5n6n3SX1g6uKpS6QunbpM6oOn1/vfl/Ed1fW2Gnoek/qrVGcgXKSBu+PBujbYF6Y+OY/ffVv4XHJzW0Y/IXW71JemOvNhJ/Xocd6vr0m7qnZ20Mem/iFvGa1frEond1mVTlYDLMG5zTh3AEbKyePjs7nJ5NpS/Vk+U7biV9Ico06o8C2p26TmWwzbgtHFpu+Tem6qJ+nLCjcn0VaXjl/6htTn9YY5nSHtV1O/k+r056fR7nWdkvr7UotOyNrV7zdSj0x1womGqIaS/dWWo07X3vtq8On/02nge3sDS0NSu3a2xapdPRsuu203vt72zuOEmGmI6lpunSDja1PtJthuh/P6hdhw3f1+VOp3U13QufvSHxa6n/13Pd7tqvhZqZunrpBqUJ8PjH0ubSXthBsPTnWMzr9k333xsjJ5u3es4dLWttsvb911fs7B1hDAYAflC7qLv37y5NpS/VI+U+42vXym5RhdPpvvTDXQdB2w/Tq2qDOO/WyqY94aIlrrOjlpmGkounNqUSjqVOwNEw0VL+kNp9AA0kkmvjnVSSfm9eSvMw92jbS2PnUK//lq8GrYamCZhddZVcNVq//+X1K9z79NdVKNjnN5aaqvwb/l/XakIJbXswGvwavH6LapK6XmW6uqX4oNWx3f18fqYskNrX28Pve+F66Tunaqwesyqd4+/9r3fhokX5D6lVS7QZr1kJXLe/23srnD5NrSfXTew/2RBTgFAQx2UL6gX5xNf8Fftu/OZ8r3Ty+faTlGbTH5wVSnKO9J9n4NBh1b1BP0BoSeyO8PEKM1/LX7WwNGW+7mdX87LXtPnE47/qjPtd3vGvg6S+S8tiA1MM26+jVoNfzMWri6PWpYbVhpy9csiDVItjtfxxl2Yo2n9Xrec0fq9prXtOGv4emuqbZeNUzNt1rN9LHb2tbg1zDW1rfu9welOu6rE28sWudrpseh4bwtj+0W9tLspy9cVi7v86/P5n6Ta0t3w7yNO7ENcAoCGOygfEH3pHLRifpp3T2fKT8zvXym5RhdOZufTrWrZk/c2QztjtjWqLaytZtju/e9Ku+7g6aZv4i8rhfPpq2EbSHo1PPtqrWoJew02vWwk248IvVLqRdn/0w5zxB5j7cbeMcbrsId8l7+7ell4IQO+uUP2G49CV2FTkyxLfr52OC1aKwQ69NWqLZINkR9Zaoh6kNy0nnU1se2zHWmuIel2hW3rXXL7BbY8NWA2Ek3HprqGLJtmZiGs6E9HFblo6db4BQEMNhNAtiF9YS+LSM+JzdPX5eOe2uXy1unOknKkYLy+fPnZxNjNIT9curZqb5vl9EdpPfR7pKd8v4PUh079vY8pq4mDJO3W3s4rGp9wo6NBU7JiQXsmHOTcTCr+tvfpgDG5ut7uUsqXDPVdbyOZBrCOq6rY1k6Y2Onp+/YuNMGpbauNdC1a2Tv+y3Tx4LR/nq6XTYtYLAEAhjsnlW1ftW2BbB2TXMCvbnaEtb3c1vCOjHGkSUY9bX9x1Snhu/0/E9O/X3qpN0FO2FHZ2fsYstPyv2/fvoYsA6r6oaoBQyWwCQcsGPOnTvXFoNO570KH5PPlE4/fublOLVb2/1Tn5HqbHf7NZR10oeedC86ye4H66xGmHWX7PpUixaO7v52Fr/WMiaD6GyGfaz541I9Hm0J6mM1zBzlOHTfW73fdiXs/fYHwqOM62rob4j65bz3uj2WvM4dU9bn0tf5i1LXS3WCmtk+XEifW59vw9efpH4z9fLsi3FfrE3e1/fMprO4Ltsb894+cmszsJgABjsmX8ydhrvdpFbhsvlM6VThZ16OU2dB/MnUTVPzrYY94e7kCp3EoRMuzOsHa4NOZ+wb0YLW8NLZ/G6U6vpU87q/7ZL0vNRp1/BpYOkU7J1pbX6B6mog6vur45/awtQg0uNw0JdN971dCRuCemLX49777VT3s7XCDtPxXJ2O/v557/3+3i3HlNe6j9HHu3rqc1O3THWZhoawg6bM7/Ppa9sxX12Mu1PNt/XrFdmP3gZrk/d017o70d/DEVw+7/EuVg6ckAAGOyZfzD1Jf9Lk2tJdLJ8pPdk+83Kcug7YfVOdZe+De9s+HS/UWe66xlPXepo3Ozlva9CID9mGhLbafG3qC3rDnO7vY1INCKcN3w1FDUnfkrpBb5jTdbp+L9VFn9sa2mPQY3HQcWj46dpgbflq0O3aYm2lbYtUFwvvsW9IO0jD5bNS98t77yF7t5xQXvNO7NHw90mpT51uu+h0w1mP8X593E413+nwuyh3F2xu+DLdPGuX93J/TFjVOLDr533e9ztwQgIY7Jh8MXddq8dPri1XPk+OOhX4xstx6mDz7021NWR+fFEDTY/hvfOc2/qxVtnXhqLu73en7tLb5rRVsr+G/3r291SLqOaxGpaukfqRVBepnveaVNe+ekge69hdXXP/DTptCWsLW3/FbxDrItMHhbAGoeekGsAevHfLKeTx+x5uEGwL2KenPj7VBZtnLXKz7pz/kOpC3P0x4/l57K1o+WV75K28qhO8L8n7veMmgRM6Sv92gF3UE+2O8VrUnaxhoF3mekK+KQ5rZZqNEdv4gJwTu7agdobCziT4W6nnpxqyDtLn3OfeOrU8fu+vr3sf94Gp+6TunWrg/KnUj09vazj/2VRbQruWGGyads9dhf4gAZyCAAY74ty5c5dP9STyjye3cAHtOtcTmEVdytoK1FaZbjfFYQGsGr7OxGf+NIQ11LRlq0GsY8kOem69fVmTi+zJ4/9X6l2pjmd7fapj59rN8E9Tj0112vp2N3xT6l/7/+c6bJpVBbBvy3fJI1Lfl7p1yqQccEwCGGy5fDl+barjVNo17NtSnfCAC+tJ9b+kenI/ry1fH5S6eI7tJoSwWSvQYQHsTJmGmk4L3xamV6UOagXr/7fUALZf9yP1ztQ/pzoD3D+l3pYyyyGbblUB7CNS7Zr9Xak/TL04n4OPTd0ndfNcBy5AAIMtlC/Bz0k9INUv4J9LXXfvP3Acs1aYdkeb18/OzpDXVrBO3LAJGr62JoBVQk6PfcNXx1q9sbctsNIABmfYW6fbVetEOR2z2TGoj8r3zvNSbR37lP5H4D0JYLAl8mV3xVS7hrS1q12lviKltevkGsDa9a2tYIt0sogPTbUlbN0avC404+JZnSClLV+HTZ/f59yg1nXZgP+2qhawC+nENW0d+6t8Hz0udffUFfb+C7BHAIMzLl9s1079fC6+INUxXlq7lqNdzNoF7rAA1tkRu/7WJrhQC1gD2FkMYZ0EpdNpd3r7RdoC1pAmgMFFrSuA7XezVCev+et8Tz049cV7t8KOE8DgjMoX2VVSnZGtLV5fk9LatVwNYIe1gM2mfv+QvA7rDjazFrCGkW3TYNXxi13welHAnAUwXRDhojYhgM28f+pLUw/Nx+ULUvdKXXPvv8AOEsDgjMmX1kemvj8XG7y+OdUFbFm+Bpqu7dQ1v3pyP3/y38k3uljzpswA1iByoRaws6ivQ8NXg3BD8fxzFMBgsU0KYPtdK9VlHF6Y77IGMq1i7BwBDM6IfEldOvWdudgpsLvtBBCsyPnJLHw9se/kDw1iDQL7tQWs4xo6Dmzdn6UNJYcFsFn3wzMXwvI69Dl1PF5fi3ZHnH+Ovd7bBTC4qE0NYPs1fO1vFesMi7D1BDDYcPlCet9UW7ra4tWWr4/s7Rto0XTtZ11DzT+k2gVuftrxjgFr61cDWKejX/fn6YVawLoQ81n9zO/zalfEvscWBbC+NvMBeW3yXni36U2wDmchgM3MWsWekT8bQYytJ4DBBsuXUMd2NXh1rNdVetsGe8V0u016ct/JHzoV+nwA68l1u382EHcs2NrWA5u2Eh02Bqz72ha7hrCzbj6AVVvI1h7AGrii74m+Hz4xda1cv0yqxx5G6+fWWdPP01kQ+96UIMZWEsBgA+VL5zqpP8jFzm547b0bN9+2BrDOhPjK1HwAqwabj0r119t1j8Xrvs5qXvezAbGtdmdV971BZr5Vqc+3Aeyg8DlS14T7hNTnpW6f+pJUF6a9ev6eN6GVlN3y3On2LGoQu1dKixhbyZcBbJh80XxTNo9P3WbvhrNjWwNYuyD2l+RF44/q8qnO5tWFmddpFr4W7eM2tIA1QDbkLgpgh7X+DZG/2x7bvhf+V+ruqa9KtQW7v+bfOdX3yNpaSdlJXb7hrNvfInbP1Lo/Z2EpBDDYEPlimbV6/URqU9aWOo4u/rxVpl37OgFHx4C9ObWoFawnCNdIfUBev/lwMFpDyKKxYP2sP8stYLMA2eew6BivPYDFJVN9H7Tr4ZVTl0l1jOCVUrdIfW6qLWQwRD6+OnPocybXzrx+zv5g6i/yMdsfNOBME8BgA+QL5ay2es08OF/2j5xe3ip5Xg1dnQnxZam397Y5XX+t3RA7Jf26T7BnAWxeQ0vDy5lrAZuG2ln3w+7/fABr2GwXxNY6dVbSj001eM3GfM32vSHs6ilLRjDag6bbbXGd1K/nY+GPU581uQnOHgEM1ihfIGe91WvmftPttuo6VM9PLVqUuSfYPenuWL11Lg3QIHJYAGsoOIstYP2eashteFn0ndXn3Sno1z0JR/9+2/I1H8J77Lvv7Tr1Xvl7nw+QsDLnz5//sWyeMLm2VTrO8jH5c/rFVFue4UwRwGBN8qVx1lu9Zu6ZL/k/n17eVu1+2ADWRZkXBZwPTl03ddk1n2C3FWjRotGzEHAWA1j3uce3IWyRvh6dnn7d64C1C2JbQefHqPS1aMvp3kLS+VuZf21g1e473W6jjrlst8RO1DFreYaNJ4DBYPmS6LTUv5uLZ73Vq61Cd8j55DZ/uc+8NdUuiP+Y6npU8z4o9fGpdkVc5yDxThSyaLKQWQA7iyco7XbYFsaL7117T32ufU0Wjc8bIn/PPb79W+7C3IsC2BtSr0+tu5skOyif0R2fe4/Jta3UHz86UceT8qd4q71bYMMJYDBQvhx6kv7w1O32bji7fi91y3yx//bk6nbL85yNA3tRqtPSz2uw6YLMH5e63PSEfLSe6Dd8vWN6eb+GmAaYszgLX4/tZVOLAlifZ1vAGsDWEm6mr3VPAD8s1RA238rY/et7phO5CGCsRT7DfjibLo3QH5O21fVSD8+f5M+kPnxyE2wmAQwGyRfC52TzlNSn791w9nQ69rbaXTdf5l+Uetrerbuj3ci6KPai6fZ7Et4ucj0B6GQL6/psnQWw+W6SDWCXSL3/NDCs0nz4O60GmsMCWMPxv+X9uK4xYD22l0vNWr/mX/vu4yyAra2VDvI38tBsOiPntn92/59UW8PuMrkKm0cAgwHyRfAV2bQbSLuqnSWvTf1K6ktT18gX+LekntH/sIMabP4q9dJUW1zmg0ZPvjsOrK2c61h0t/vTANbxUPP71tD1/tN671OGsP7bVYe4/Q4LYG1R6uuyzpalBrCPSV0ttaiLZ8Pw36W0gLF2+fx+aqo/FLXundrWMHbV1K/lo+63Uu2ZABtFAIMVy4d/+6Y/YHLtTHhdqrMati/9VfJl/dWph6Q6EcUua+tFj81LUotaMxoUuu7TtVL9wh89FmwWwBa1gDUwdf8awDpL38gAdVrd73bvW/TjRV+Dvckt9q6txyyAdQr6+QDW16RhvQGs7x0BjI2Qz/Onpe6VahDre7c/sv1I6rGpju/dFndIPTHfw52sAzaGAAYrlA/9R2Vzr8m1jdYTw04McqdUW7q+IfWI1LpnltsYORazk+kGsGenGnb2a6jpGKtrpm6YOmjSiFVq69eiMWDV/Wv46n6dpc/+hpqDAljfn52Zci0BLH/fDV8d/9V1vjoBS6/v1/3r5Butt+YtNB+MYe3yvnxZqj+yfXvqs3NTFz2+fuo7U49LnXWdRbXT1f/o5Cqs37n8sU0vAsuSD/rO2taxQpve5bBj0h6W+sN8FvzN3i0cKK9rQ0xPtrt0wDemFp10vyX1l6n7p/42NepDti1FDX5fkPrUVFu79usYqYbsB6faInPS1pgGoh6DPv/+ej6v99217R6TakvhaX106ttSn5Sab1Vsq2yPdVuYX94bBmvgvnyqv653Udj5lsWGwz9L/Xz+vno84MzJx17/3j8zdbPpthMOnVX9vvvG/D2+enIV1kMAgyXLl9WNs9n0hS8flHpg/v4fPbnKUeX17XTu/XW4XUs/OTXf0tWg025xr0q9LTWq21lbtfpLb1uL+gPAfDDsh33DUUPhom6KR9XHaUtau9318ea1ZbAtPp16vY9zGrNWu3aR6o8Z8y13bZFsd6mOVewkKaM19LYFrJNwLDoWPQ6/nHpo/tZeuHcLnGH5/OtkQ/vD2FkcX/XXqYYwP4qwNgIYLFG+nD4tm/4iv4naWvDAVv7un7V3CyeS1/nK2Xxlql02O/vdvIabBq/WyA/Zhq6Ggm7nW2Oq+9Puet2n0+xXg1Bbf+ZDXs2ee4PoMrrc9TH6WIu6TfY57H9Oo/UY93i35vev+9NW5e9OPSZ/c9s0rgb2TL/zPj/VlvdOQHRW9POpIexnJ1dhLAEMliRfRJ+QzXMm1zZKFxCeBa9ldAnbeXmt2xrT5QTumeoJyOgJN9h8bf3srJnfkXpm/vbWOVEIrFw+F2+eTYNYq63CZ8FP52+z3alhqEW/KALHlC+eTkG9aeGr3Sy+LnWdfMF8v/C1VF3MtF3Knpvq+mgw702p56feKHyxC/I+/9PU1+di10K8Y6pjTjfd3fP9/bBUuzrDMAIYnFI+uNsF7cWTaxuhM6/9YOoG+TLs4P/TjsNhTo5puw50so1OsNAQNrqrIZutXS873q7dkXd9+QZ2TD4e3556cOqLc/Xaqe9PtSfGpmqL3aPzXd6xszCEAAankA/sD8+mky1sioekGry+M+XEb7U65XsXMW03s9PMKsh2aRDvjx79XGg4b2sp7KR8Dz0/1XGQnayjY2Yf3ts30A1ST813emc1hZUzBgxOKB/Ul8pmU0LOM1I/lr/nBjAGyXugkzB0+vGvSN0idenUIm2VbItZZ+pbdVDr9POdka/j0uYn4piFgzemTtotrvfZqegvm1rUbafPr7NAdgzUadaR62N0xrUe00WTfXT/+xid6r0D6kfpD5f9279EqpNvzB/j7kvXivut1P39EAIXlY/N62bT7vGdyGjT9LOxP2K+dHIVVkMAgxPIF0hPbtsCsm49ufuxVv6WT3OyywnlvdBp37t46benOl16Z+yb1+DVdeGel+qYsVUGhq5N1olBOgi+U+bv165xnbK9yyR0jNJJ9qOhowGvyy1csTfMafjq82wIOenMfw05Pa7XSPWX8/nn0S+uHsd2/X1BatTfYoNgA2GXH7hqaj7kdr86DX/XGvq11JPyd7kJnxOwcfLZedNsOmbsdns3bJZPzN/uJk6qxZYQwOAE8sWxCX84ndnwvvkb7mQbrEneCw0k10r1ROLzUh/Rm1P7tbXmlalfTD0u1WCyqvdQp4LuL8s9uVk0pqFLEDS0Pzt1krWzGjCvkursfp/RG+Z0nbEu9tyuRn3OJ9Fj2pbFjiFp16D5lrYGySelfif1+FRbwkZoy1f3586phtz5bvxt/ev6Zz+V+vVezt/nyNY5OHPyGXrrbP5Pqn/zm6QtYX8+vQxLJYDBMeXLoidY7X61Lu1Cdo/87f7M5CrrlvdEW0Vukvq/qU9JLWp5ahfELvz5G6nOFraSmfGyL9fMpl0i75BaNBV0xyU1gD0q+9DuNseS++9za8vUD6c+p7fNeXWqiw8/JPd/ooH308f42tTXpLrg83yrYkNNf4C4f+oFeZy2Oq1U9qmtX23h7JTVt0wtGivS1/gpqe5XX+v/yL75koUjyN9Yx4g1iH3q3g2b4dPzJ7ypa3tyhpmEA44hXxA9uVpn+Oqv/p+VLwTha7O0290zU50VsYvvzp9097O2Y4baetLuitfIe2lVa4e1NaitUAeFko6r+ujURk67PA067eLY7o0NkG0N269htj9CtCtlW9hGTfHeLpFt9bre9PK87le7dbZF7iX5G/134QuOLn8uv5Hq31gn7XjX3o3r9xf5TOqPWrBUAhgcUT6EfyWbnkCvy4+nGr7+YnKVTZHXpC0ybRltt7snp9oSMt/1rEGi3RNvmGoLykfmPTUfLpahs+51zbeGlEUBoAGsSyds6ro3nUSkLU0NYBdPzX9PNXB11snXpd48PfYrk9eoGpY7Fq1dTNvy1QlC5jX4vjzVX8sbgIETyN90p63vGNM/3rth/V6YzwAhjKUSwOAI8uH7/7K56+TacO3SdYd8Kf3f1Khf+zm+/mL7olQDWMdZLQpA/cxtuLhVqi0pH5L31rI/hxsE2jrUILYonDTUXKnbJou9WzZL96+zpDUkLtq/tuz1OL8ufw9tdVq1hq0er/748umpD0rN71f3o6G3rV899pvy6z2cSfnbflrq83OxXX7749a6CWEslQAGF5AP3S7S2PEu6/B7qbZ6/fbkKpuqYSDVSS3aAvKHqdenFgXmtkB1DNWXpho0PmiZQSj70Mfs1Ox9/EVrULWFqTMlfuj08sbIYWiL4Iek2g2p3SQX6ayC7e658vX3sj/tDtmJN24+re7bfKtlQ3a7oD4/1QlW3pjXQNdDWIL8Kf10Nm0N67IO6/a0fCYIYSyFAAaHyIft1bJ5wOTacPfMl88XpTqmiLOjLSBPTLU15B9T8yfjDVs9qb9+6japho1lt0Y1pHR8VMckzWuAuGSqLUwda7VJelx6gtNWwl6e15alv091mvsR3fw6bq+tXp1spF0QF3U9bODtVPh9zTv1vmnnYYnyHfjXqS/Lxc7u2h+W1qWt848QwlgGAQwO16mk13GSeut84dx3epkzJK9bT8jbbbStl22paWvUoq6IDUEdC/aFqX6hLzOEtZteg3vXylqkswxePfWRe9c2wPS5d9KNjpHrRDeLFl9uS1O7HzZcLmrdW5rsTlsq+7p8UeoTUh0zN//69LVu96jHphq435HXX+sXrED+tLq2Xicx6ljbdenY1Ifm80EI41QEMDhAPmB/M5u2Tox2/XzR/NH0MmdTw0G7pPV1fEaqi2TPn5g3YDRo3Cx1l1RbfT5gGkROqwGs68O1tWhRIOikEj2BuNySHu9UpvvQUNiTm46N67T+8/o8GiifllppN7/sTlsJ2020LZRtqWzXw/nj1MdvIOw6QZ0Yp6G764ABK5I/+xelOizgeye3rEXXffyVfE70RzQ4EQEMFsgH672yaZeH0a6aLxezHJ5xeQ07KUMXW+6YoEem2mozPy18T+gbwtrq0wVIG8La0vK+00ByGu2q1xn5ZtPRz4eVWQtYA88yHu+0+l3UxZ27hlrHfnX/5jXE9vn8VaqtiiuRQ9Fuhu16/LmpvdkqU4u6Hva4viLVmdqen9f8XamVhULgv+VP7T7ZdFbS/tC1Dv2hqDMTw4kIYDAnJ2A9Cfz2ybWhLp0vFeO9tkRey64D1VaRdk1rCDtodry2RnU8VmdGvG3qk1IfeJpQlMdtS0wDYB+zrWDzLTNt4fnwVGf3awBcFDBO48hBZPo8OxlIJyTpTIOdZXD+u6mBttPOdxHpTr4xH2aXIrvSBZ8bShu+bpFqq+Si9do6u2Rf2y623BawjvUDBsrn3J9k0y6J6xqnfdd8Znzr9DIciwAG7+keqVUtknuQi+XLZGW/6rNWL079QaqTNHT9qkUzIzYAtaWlAayzI3586lL5cl80DuqoGhI6VqpdEdt6tF9DTz//PyZ1ndRx3+/LbDHrc++sjJ+a6r40BO3XMNf9f3aqC5G/NX8rS29pyrFuq1vX+OoJ3e1SDcLzMx5Wj2vHfT059bupv83urHQtMmCx/O39Q6pLxPyfyS3D/Wg+O9pSDscigME++SDtLEs9+RrpMvkCMXZkS+W1bWtNZ8frAPK2hnUc0/wJewNNg0cDQNe+6clEA8ml85486ed0W43aotpWo0UtRn3MBrBPTi1r7NmxTB+z4706Dq7hq7MOzu9Hj1Vb8zqhydNTS59lMLvRoNWuj235ulOqMx42kM3vS4Nflxp4QqpdD9vNcyWtccDR5XP2Z7P5ksm14X48nyHtTQBHJoDBVD5Auy5SW79GunK+OHpyyXbr4sidqrzruT061enh50N3T/YbwtolsOve9MeAm6Y+PO/Nk7SENSy0m9wLU32PLXq8trq1te2gcVerNmt1agDrGLA+z/nQ08DT4NUg+ab8vSy1tSnHtse84+E64cYdUg1fnW56fj+qk250nbeGr04G8rbsz9Jb44Djy5/i72SzjhDWMaPGg3EsAhj8t4avjvkY5Tr5wmgXMbbc9CS9MyM+NdXuiLOWsEXdEdsa8xGpLvzb7ohtlfnYBIVjdRPsY0a7tfY91pawBpl5DRr95fYTU4vW3Vq1jkPruK9OPrJouYeGxo6v+rPUi/N82qq3FDme1effAHrrVJcDaKvjYeGrIbqLbD81+9KuT0vbH+D08jfZENZeBKPdJp8nPzC9DBckgEHkg/Mzs/nmybUhbpwviv6iz47I690Q9o5UJ2341VTHEHWCjEUhrJ/NnYyiCwDfLdW1qD4u79NLpo77ud0A0xakN6cWtdZ0ivUbpT4i932aMWdHlsepBp0Gr54sfVhq0fN6S6qhp/u/tIWX89h9rHZ9bLfHO06rIXTRmK8es3Z77EyWD0s9KtUJQYANlI/atlB3AfXRviOfLV8+vQyHEsBgYmTXw2/LF0QnE2DHTENYW6U6lfovpLqA76JZCqufz10MuF3iuiRCx4U1KHVc2MWaYHL5KBrAurRBW9wWPU5bvho+uu7VovW3VqETb3QtnZuk+vz6POe1dakzHnams1fl0M1PJHJsPWbRx+5zbvfOHtNOfHLl1EFjvjpzZSdSeUSqrZeddGPRcQQ2RP5G21X4qpNrQ31PPmP6gxIcSgBj5+XD8puy6TpMI/xWvhh+bHqZHZTXv8GiLTud1a+LffekvkFj0RT1DQQNJw0IfY+2NazrhbXl5gNSR9Guh50s4jmphr15DSTt8tjZ/z6+CaU3rkruvq1sDXod59YQ1MvzLW89Rq9PNag2PLb1bhk63X2DZifa6Bi77kPHoB3UvbMtll1nqN2aHp569TKCILB6+Vtt1+vRXasb+kaPJecMEsDYaTkZHPlh+ah8IaxjcWc2zDSEdUzRU1IPTfXkvtPFd7KORWbT1DckNYDdPnXTvH+vmHq/1IGhKY/VSSs66Ue7PL6sN6XmNeQ1jHxa6rK5u1V2RWzXw8682MdrGOpz26/715DTwNixX6cKPT02fT6phszrp7441WPY8Ndfqhd1O6y+Pp3ApN0OW11seVF3UWBD5W+2P3b1h5eRvimfN/2shgMJYOy6/5sa0V2gv+R3HA/syYlBg0ZP6J+V+uXUQ1INHe2iuGimv4asdpPrjH0N8t+Y6sQR7cL3ofnCf98mjVxepK1gbUlqa06DxfzkEQ1BbQlqALte6hKH3NeJ5S7b0tSp77vUw7VTfdz5x+kxaetXp3pvaDzxtPN5vIarS6b6mF1Y+WtTX5G6ZqonZYue4ywc97VoOO7r8jd5ueaPGXAG5G+3S0X0c3MkrWAcSgBjZ+XkrL++95fwVevsd3fLl8CiWejYYQ1h0YDRLoI92Z+NC+uvth1nNN9a1cDQadO7ZEJn7Gug+I5UW3XaTbHrebW156BQ84xUA998qOn/37By3VTHRHVa+vkFkU9luk9XTHV2x7ZE9TnM72efb7sbdqKLBsY35vgce9r5Plb0+Vw21Zaub011vNfetP6pReO9qiFrNltlu4d2oeXXZB90O4QzLH/DXYuxnz2j3CyfQf2BFxYSwNhl/SX8WFN7n9AP5MO/v6bDQnl/dPxX1+xql7vfSD041e6CB7X+9LO7syS2Zadd+WYtYl3HqjMLtgXr3Z/vuf8Gmz5GA1gDXtcFWxRsGoo6e9gXpC7XFNMbT2u6Lw1DDY2fl+paZ4sCXlue2kr3p6mXZLePPdlFHqvBq901O4Pk16W+OtXWr0760anuD+py2JDa2Q07zfwDU4/p9eyD8AVbIH/LXYOx42hHuUc+j0a3vHFGCGDspHwo9gRtROvXn+VD/4enl+FAeZ/8Z6qtVA1hv576/VQDU2cvPKgVqJ/hDRUNNg1hd001hPWX3uvkff5hqfdJnct9N4S9ItVxZw05i8abtUtgW786NXxbqboI9KlC2PTfd8KQjvvquIhOILJo1sMGoIbQBsRnZXc7bu3I8jBt/btCLjZAdl2v/n33ePQxDwp81ePS1ukG3kemGoD/NI/fmReP3foGbK78Tf9SNqPW6+qPTroispAAxq7qDGgjxn5ZmJHjms281+6IP59qS8xrUg0JhwWxhpxOJ9+W3e9JtcvdrOXnIxNOOhaqujBzp1TvdtHMi20V7uQ0HV/WaeI/OP/2NJNyzO6voehm0+vzoa7Pq9Pld420ruHzhtShsk/VcNlp+RuwPiXVrpjfnmqXwz73djc8qMWrwauhr4/VNfna6vizqa451i6gwBZKCPuubNrFeIS75PPpS6aX4d36q+j0IuyGfBh2Fra2LFxt74bV+eH8ffn1ixPJ+3Q2XXvDS9f/aqtUw1SD1GE/nvVDvd3mGiLemGqrUgPG01LPSzXoXCnVrjgNKR07tigQ9d+3tez3Ug1s/5T38/nsV8dPdRKL+6bazW9eH6+/MndMW1vc+ljtBthujX0u84Go+9vQ+Uepdv3r+Ku39bGyvYg8dvdzVg1ybcnuuLVOHtLJSNoC1l+d28J2UPCq3nef49+lGnC71tgzp9f/bdFjA9sjHyXtwt0fe/rZumrPzEdKfyCCdxPA2Dn54G3LwM9Mrq1Mx3x9Rv6+OqAfTizv187W1xkK24WvMxQ2bHQCmYaMC7VM9QO+LWd/m2qLVyf7aDWEdbxX1xa7Yeqg+2r3x87g2ZkAH59qQGk3xaMGsI7h6pivdgfsv1m0dln/RjoxyANS7QL4pvzdvEdLX45DA1VPmtpFsqHuKtPqOLhuPyR1lLXRet+dabJ/o51psYGvwXQvYGYL7IB8pnS87ONSl9m7YbW+Kh8vvzq9DAIYuycfum0J6JiZVfrS/G31pBWWIu/bWfBpt8DO5tcW3K5tdYnUUbuTt6WpoepFqS5S2uDSQNdWtQac+Zaw6qyE7RrYBaMbVhreOpvhD6UOCmA90ehYrgaldvft31v3c16nh+5+dMzbw/I303FYfa7dj7a0NRj23zV4daxbuxq2FfDjUz0WvX7Qfs9rGOy4t3bn7PpeHZDfffyHPG67IgI7Jh81najn/pNrK/UX+ZzpuFrYI4CxU/Jhe6ds2s1plR6Uv6svn16GpZiGkk4k0TDSYNMQNlvMuF0VZ61Yh4WRTrPeFqCO/Wo3xf6/DXYNOwcFmf7/DS6vSrWFqsGl+9GxVt2HeQ04/fGh3R/bateQ1n2eD4m939em2gXw11Jtmev+zfanLXTtUjhr6Wrg/KhUn2e7Hx62zzP9guvjdDbJBscudt0p7tu1skGxz6uTn/gihB2Vj9aeE/TcYNXunI+aTvIDAhi7JR+0nd560a/2y9JxMzfK31UnUYClmwaxBpB2uWvXxM4q2CDU2f9621FbhKqBp18Cs3B00L/r/9PQ9vepF6faatUJNdoKNa8tbE9MtXWuoaljsubDV++vU87/ZaqzPfZ+2wrXMV0NWW3Z6nPpbQ1cHbfZ6vM+amtfH6Phq1Pud2KNdjXq2mINfe3muGgCEmDH5CO13Zr7+dAfelbpSfnc6Y9mIICxO/Ih20kM7pnqieqqfEf+pto1C1Yu7+m2RHWmv05Ace1Uu+e1RawtZG11ahhbpga2thp1LFhnEb1Ual67OXbMWcdVtGVuUajr/bT7YVvV2h2yLXcNW+1m2H/T6niuk+z//vtuV8OO72r18qvz93nstcWA7ZbP0ttn89uTaytleAJ7BDB2Tj5o+wvUnae1zBPU/rp+w/xN9QQQhsl7ugGmLUQdG9WJOjrjVmc3nIWkgybZWIV+qbQavA5rUTtqK91RNXR1co12fWwrV2c6fVLq2ak3+7sEDpPP0Z/K5u6Tayvz2HwWdW1CdpwAxs7Kh227O90x1SDWE9fTuk3+nh42vQxDTUNYx0W15aitT20N6+QXn5SatYh1RsX+Px1ntewANFq7F3byjAavtro1dL0g1e6GnVK+rXCdYbH//b/yt+nLDjhQPkM74U+7InZpi1W6XT6O2vWaHSaAQeSDt90TO3HGSRdM9KsWGyPv57bstkWsQaxjqTrGoT8ydNrlBrOOs2r3xbMawvrF1daudjPsGmdt7XpJqqGrsza2rOcFHEs+OztGvGPFV+mR+Wi65fQyO0oAg33y4duT1NulOiNSu3Ad1Zfnb+lB08uwMfKebstYW786sUVbwjqFfC83hLUVuNWuig1so7opHke/pDpuqxPcdIKPtnS9brptvTLVGRTfkL/BtnYBnFg+M++VzfdOrq3M5+XzqgvAs6MEMFggH8DtivCFqS9OdSHZw1jlno2X9/SstavdDzsurD8wdJbCq6c6+1dD2KybYqtdGWfTvTeYrbq1bBa0OjvhrFthp4/vpB+dMbGhq7MvdtKOTqgx62L4P/L354sMWIp8VPYHqnZj7lIYq/JL+di62/QyO0gAgwvIh3En7WirWGdJWvSB/L/zd/Rz08uw0aZBrIGqXRBbDVkNXO2u2FaxTm3fLovdtnWs08i3dazBrV0bZ/+u1Snhe3/7J7jYP018v2A6VqvBqv9Pr3c7X/3vHc/VoNX1ujotfVu3ulZXq5fbAtZgNgto/56/u/5bgKXKx+QPZPMdk2sr0cmCrpHPsG7ZQQIYHFE+kLsobINYW8Zu0NviFamPy99Rf6mHM2kayhqoGsQ6Y+KsZq1hbRlrQGsgazfGjiNrC1qnju+/bShqiGpIa6CbtZZ1seeOx2rr1dtT/f+6nbVqzaprdb0h1XFd/Vtq61er/1///3fkb6z3D7By+Ujs51xbwbokxqrcLZ9rvzS9zI4RwOAE8uHcENb66/wN9Zcy2Ep5r7dFq90Q2y2363R1geX+GNH1x9qVsa1iDUpt6WpAa5fGhrUGqI7NapfBrhvWVqsGsoawhqy9YDWtdiVsEHtn/p58KQFrl8++H83mWyfXVuJP8nF3oSEObCkBDE4hH9Afkb+hnlzCVst7fdaq1e2sGswawBqu+mXSVrFOfd8ujG3N6hpcz0n1v8/s/9J592XBC9gk+cjrGNm2grU3wKpcJx99ncmVHSOAAXAi01DW75G9sVi5OluHrN0Z2yLW1i2tWsCZlM+0n8zmGyfXVuLe+XjsrIvsGAEMAADmJIB9XDZtBeuPSqvw3JyHX2d6mR2yf7YqAAAgEo5ekM2vTK6txCck5FmUeQcJYAAAsNgvT7ercpvplh0igAEAwALnz59/Vja/P7m2Erc9d+5cl/RghwhgAABwsD+Yblehi93P1hZlRwhgAABwsLaAvXpycSUEsB0jgAEAwAHOnz/fJTVW2QomgO0YAQwAAA63ynFgNzh37tylppfZAQIYAAAc4vz580/O5jmTa0v33qmbTC6yCwQwAAC4sCdMt6tw4+mWHSCAAQDAhT1xul2FG0637IBz58+fn14EAAAWmY7TemVqVeO1Lp3z8n+eXmaLaQEDAIALmIajVXZDNA5sRwhgAABwNJ2MY1WMA9sRAhgAABzN06bbVbj+dMuWMwYMAACO6Ny5c3+fzYdNri3VW3Jebj2wHaAFDAAAju7p0+2yXTLh7sOnl9liAhgAABzdk6bbVfjY6ZYtJoABAMDR/dl0uwpXm27ZYgIYAAAc0fnz55+Vzdsn15ZOANsBAhgAABzPi6bbZRPAdoAABgAAx/PC6XbZBLAdIIABAMDxrKoF7KrnYnqZLSWAAQDA8ayqBay0gm05AQwAAI5nVS1gJYBtOQEMAACO4fz586/K5t8n15ZOANtyAhgAABzfG6fbZbv0dMuWOpcEP70Iq3Hu3Ll7ZXPjyTU2Qf7ubzq9uDZ5Xzx+epHjuXdevydMLwOwJvkee342Hze5tlQ/nc/5b5xeZgsJYKzcNIB97+QaG+AJGxTAbjK5xjHcVAADWL8Vfo/9cj7n/9f0MltIF0QAADi+N023y/YB0y1bSgADAIDjW9UYMAFsywlgAABwfAIYJyKAAQDA8b1tul02AWzLCWAAAHB875xul00A23ICGAAAHJ8AxokIYAAAcHzvmG6XTQDbcgIYAAAcnxYwTkQAAwCA49MCxokIYAAAcHxawDgRAQwAAI7v/afbZVtVsGNDCGAAAHB8q2qpEsC2nAAGAADHt6oWsH+dbtlSAhgAAByfFjBORAADAIDjMwaMExHAAADg+AQwTkQAAwCA47v4dLtsAtiWE8AAAOD4LjPdLts/T7dsKQEMAACOb1UB7E3TLVtKAAMAgOMTwDiRc+fPn59ehNU4d+7cvaYX2RD5u1/7a+J9cWJPyOv3hOllANYk32PPyeYTJteW6p75nL/v9DJbSAADAIBjSgB7bTaXm1xbqq/J+fkvTi+zhXRBBACA49MFkRMRwAAA4BjOnTv3Udmsah0wAWzLCWAAAHA8151uV+Gl0y1bSgADAIDjWVUAe9v58+dfP73MlhLAAADgeFYVwLR+7QABDAAAjmdVAexl0y1bTAADAIAjOnfu3FWzudTk2tJpAdsBAhgAABzd9abbVRDAdoAABgAAR3f96XYV/nq6ZYsJYAAAcHSfPN0u3fnz5585vcgWE8AAAOAIzp07d/FsrjO5tnTC144QwAAA4Gg+LXWxycWlE8B2hAAGAABHs6rWrxLAdoQABgAAR/OZ0+0qCGA74tz58+enFwEAgEXOnTt3lWxWtlByzsnPTS+y5bSAAQDAhd1iul2FJ0+37AABDAAALkwAYykEMAAAOMS0++EqA9iTplt2gAAGAACHu+10uwrvSGkB2yECGAAAHO6Lp9tVeOr58+cbwtgRZkHk3c6dO3eT6UXOoPwtP2F6cWnO6nvCsWAbrOJ9DBxfPv9vmc0jJtdW4t75e7/X9DI7QADj3fIB8/hsnGSeTSv58J6Gjr4vzhLHgm3whLyPbzq9DKxRPv8fkM1XTK6txPXz9/4X08vsAF0QAQBggYSvK2azyu6HzxG+do8ABgAAi90p9YGTiyvx6OmWHSKAAQDAnHPnzl0qm6+cXFsZAWwHCWAAAPCe7pq60uTiSrz0/Pnzj5teZocIYAAAsM+5c+culk0D2Cr9/nTLjhHAAADgohq+rjW5uDK/Nd2yYwQwAACYOnfu3KWz+cbJtZX5rfPnzz9/epkdI4ABAMB/+9bUNSYXV0br1w4TwAAAIM6dO/cp2TSArdJTzp8//4jpZXaQAAYAABMNX+8zubgyWr92nAAGAMDOO3fu3Ndkc/vJtZV5TUoA23ECGAAAOy3h67rZ/Pzk2kp18o23TC+zowQwAAB2VsLXe2XzU5NrK6f1CwEMAICd9qOpT59cXClTz7NHAAMAYCedO3fujtl88+Taymn9Yo8ABgDAzkn4uno2D5pcW7kHmHqeGQEMAIBd9NfT7aq9OdVujrBHAAMAYKecO3fuz6cXR/jR8+fPjwp7nAECGAAAOyPh67nZjJh0o56e0vrFRQhgAADshISvF2Rz7cm1Idr69R/Ty7BHAAMAYKsleF1sGr6uNblliN9M+Prd6WV4t3N5Y0wvsuvywXST6UXOoPwtP2F6cWnO6nvCsWAbrOJ9DLson98fkc1jUiPD19tSN8jf8fMmV+G/CWAAAGylhK9rZvPQ1MjwVd+bc+z7TC/DRQhgAABsnYSvjvXq4sejw9ezU239eufkKlyUMWAAAGyVhK/bZ/PI1Ojw1ZaNbxe+OIwABgDA1kj4ulc2v536yL0bxvq/CV8dbwYH0gURAIAzbzrZxk+k2vq1Dg/IefVdp5fhQAIYAABnWsLXzbJp+Bq5xtd+z0jdPOfV/zS5CgfTBREAgDMr4evrs3lUal3h612pbxW+OCoBDACAMyfB6xNSneXwfqmL7d24Hg1fT5xehgvSBREAgDMjoath69undfHetka/mHPpr5lehiMRwAAAOBMSvr4wmwavT927Yb3+ItVxX2+dXIWjEcAAANhoCV5Xz6bB6yv2bli/56a+NOfRL55chaMTwAAA2EjT4HWnVLv5Xaa3bYBnp74o59CvmFyF4xHAAADYKAleN8qmwevOqfftbRviJanPyvnz6yZX4fgEMAAANkKC1+2yafC69d4Nm+U1qevm3PkfJ1fhZAQwAADWJqHrCtl8fuqOqU/vbRvoDamPzXnzP0+uwskJYAAADJXQdclsviDV4NV6v9Smelvqw3LO/I7JVTgdAQwAgCESvBq2ZsHrw3rbhvuv1PvmfPk/Jlfh9AQwAABWIoHrKtl8RurG02p3w7PiFTlP/pjpZVgaAQwAgKVI4PrwbK6Xutm0rpU6i/4o58ibOBEIW0AAAwDg2BK2LpHNdVOfOt22Lp86634g58ffNb0MSyeAAQCwUELWh2bTbnhXXrD9yNQ2eWvqf+Xc+CGTq7AaAtiWywfnvaYX1yrvs6XvR57bTbJpsUKreO1qQ96b/QA8N7m4FnuPv6pjfByb8lkBrM0Hpjoz4azalbBB6+KpXfC01F3zefyiyVVYHQFsy+WkahNe4HuvMIA9fnKNFXlCXrubTi8vVV6/vnYCdOQYrzME7pkGsO+dXAPYKb+Wz+GvnF6Glfuf0y0AAOySf0l9s/DFaAIYAAC75hGpmyV8/eTkKowjgAEAsCv+NfXtCV63Sj1zchOMJYABALALHpNqq9ePTK7CeghgAABss/9KfXeC1+ek/mJyE6yPAAYAwLZ6ZKqtXt8/uQrrJ4ABALBtuq7Xlyd43TL1xMlNsBkEMAAAtsXfpO6e0HW91IMmN8FmEcAAADjr/inVBeU/LcHrZ/ZugQ0lgAEAcJY1cDV43TvVIAYbTQADAOCseVmqE2t8fEJXuxy26yGcCQIYAABnxSNSd059XEJXp5Z/wd6tcIYIYAAAbLK/S/1k6tMTuG6V+o3Uv+39FziDBDAAADZR1/D6+lS7GX5z6i/3boUzTgADAGBTNHTdPXXVBK6u4XX/1Jv2/gtsCQEMAIB1mg9dP5MyqQZbSwADAGCk56R+PnXXlNDFzhHAAABYpQauTqLxxakrJGh9YurrUg8QuthFAhgAAMvy6tQfpr4n9fmpD54Grk6i8bup1+Q22GkCGAAAx/X61DNTv536f6nPTl02AeuKqdumvi/1x6k353Zgn3P5w5heZBudO3fu8dOL6/TEvM/uNb28NHluN8nmeyfXWJW8djedXlyqDXlvboRVHePjyOvRv9EbT64BO+hdqXem3jG3bTVstboe1+vzmdUtcEICGAAAwCC6IAIAAAwigAEAAAwigAEAAAwigAEAAAwigAEAAAwigAEAAAwigAEAAAwigAEAAAwigAEAAAwigAEAAAwigAEAAAwigAEAAAwigAEAAAwigAEAAAwigAEAAAwigAEAAAwigAEAAAwigAEAAAwigAEAAAwigAEAAAwigAEAAAwigAEAAAwigAEAAAwigAEAAAwigAEAAAwigAEAAAwigAEAAAwigAEAAAwigAEAAAwigAEAAAwigAEAAAwigAEAAAwigAEAAAwigAEAAAwigAEAAAwigAEAAAwigAEAAAwigAEAAAwigAEAAAwigAEAAAwigAEAAAwigAEAAAwigAEAAAwigAEAAAwigAEAAAwigAEAAAwigAEAAAwigAEAAAwigAEAAAwigAEAAAwigAEAAAwigAEAAAwigAEAAAwigAEAAAwigAEAAAwigAEAAAwigAEAAAwigAEAAAwigAEAAAwigAEAAAwigAEAAAwigAEAAAwigAEAAAwigAEAAAwigAEAAAwigAEAAAwigAEAAAwigAEAAAwigAEAAAwigAEAAAwigAEAAAwigAEAAAwigAEAAAwigAEAAAwigAEAAAwigAEAAAwigAEAAAwigAEAAAwigAEAAAwigAEAAAwigAEAAAwigAEAAAwigAEAAAwigAEAAAwigAEAAAwigAEAAAwigAEAAAwigAEAAAwigAEAAAwigAEAAAwigAEAAAwigAEAAAwigAEAAAwigAEAAAwigAEAAAwigAEAAAwigAEAAAwigAEAAAwigAEAAAwigAEAAAwigAEAAAwigAEAAAwigAEAAAwigAEAAAwigAEAAAwigAEAAAwigAEAAAwigAEAAAwigAEAAAwigAEAAAwigAEAAAwigAEAAAwigAEAAAwigAEAAAwigAEAAAwigAEAAAwigAEAAAwigAEAAAwigAEAAAwigAEAAAwigAEAAAwigAEAAAwigAEAAAwigAEAAAwigAEAAAwigAEAAAwigAEAAAwigAEAAAwigAEAAAwigAEAAAwigAEAAAwigAEAAAwigAEAAAwigAEAAAwigAEAAAwigAEAAAwigAEAAAwigAEAAAwigAEAAAwigAEAAAwigAEAAAwigAEAAAwigAEAAAwigAEAAAwigAEAAAwigAEAAAwigAEAAAwigAEAAAwigAEAAAwigAEAAAwigAEAAAwigAEAAAwigAEAAAwigAEAAAwigAEAAAwigAEAAAwigAEAAAwigAEAAAwigAEAAAwigAEAAAwigAEAAAwigAEAAAwigAEAAAwigAEAAAwigAEAAAwigAEAAAwigAEAAAwigAEAAAwigAEAAAwigAEAAAwigAEAAAwigAEAAAwigAEAAAwigAEAAAwigAEAAAwigAEAAAwigAEAAAwigAEAAAwigAEAAAwigAEAAAwigAEAAAwigAEAAAwigAEAAAwigAEAAAwigAEAAAwigAEAAAwigAEAAAwigAEAAAwigAEAAAwigAEAAAwigAEAAAwigAEAAAwigAEAAAwigAEAAAwigAEAAAwigAEAAAwigAEAAAwigAEAAAwigAEAAAwigAEAAAwigAEAAAwigAEAAAwigAEAAAwigAEAAAwigAEAAAwigAEAAAwigAEAAAwigAEAAAwigAEAAAwigAEAAAwigAEAAAwigAEAAAwigAEAAAwigAEAAAwigAEAAAwigAEAAAwigAEAAAwigAEAAAwigAEAAAwigAEAAAwigAEAAAwigAEAAAwigAEAAAwigAEAAAwigAEAAAwigAEAAAwigAEAAAwigAEAAAwigAEAAAwigAEAAAwigAEAAAwigAEAAAwigAEAAAwigAEAAAwigAEAAAwigAEAAAwigAEAAAwigAEAAAwigAEAAAwigAEAAAwigAEAAAwigAEAAAwigAEAAAzxP/7H/w8vpNK9MkoaQgAAAABJRU5ErkJggg==;" parent="1" vertex="1">
          <mxGeometry x="450" y="163" width="193.11" height="194" as="geometry" />
        </mxCell>
        <mxCell id="aH0ajwhX6fXI9PadNEJU-14" value="" style="edgeStyle=orthogonalEdgeStyle;rounded=0;orthogonalLoop=1;jettySize=auto;html=1;" parent="1" target="aH0ajwhX6fXI9PadNEJU-1" edge="1">
          <mxGeometry relative="1" as="geometry">
            <mxPoint x="750" y="260" as="sourcePoint" />
          </mxGeometry>
        </mxCell>
        <mxCell id="aH0ajwhX6fXI9PadNEJU-11" value="" style="verticalLabelPosition=bottom;html=1;verticalAlign=top;align=center;strokeColor=none;fillColor=#000000;shape=mxgraph.azure.computer;pointerEvents=1;" parent="1" vertex="1">
          <mxGeometry x="775" y="219" width="120" height="96" as="geometry" />
        </mxCell>
        <mxCell id="aH0ajwhX6fXI9PadNEJU-17" value="&lt;font style=&quot;font-size: 18px;&quot;&gt;Web App que mostre a visualização e troca de mensagens&lt;/font&gt;" style="text;html=1;strokeColor=none;fillColor=none;align=center;verticalAlign=middle;whiteSpace=wrap;rounded=0;" parent="1" vertex="1">
          <mxGeometry x="745" y="300" width="180" height="110" as="geometry" />
        </mxCell>
        <mxCell id="ZmAw4ixOMPo7TmLA4gBd-1" value="LoRa" style="text;html=1;strokeColor=none;fillColor=none;align=center;verticalAlign=middle;whiteSpace=wrap;rounded=0;" parent="1" vertex="1">
          <mxGeometry x="410.88" y="260" width="60" height="30" as="geometry" />
        </mxCell>
      </root>
    </mxGraphModel>
  </diagram>
</mxfile>
